%
M48
M72
T01C0.0138
T02C0.0236
T03C0.0394
T04C0.0400
T05C0.1600
%
T01
X6800Y9430
X8800Y11580
T02
X8170Y15139
X7166Y15139
X6162Y15136
X5166Y15112
T03
X2087Y14943
X11418Y14943
X11379Y5494
X2087Y5454
T04
X3900Y4230
X4900Y4230
X5900Y4230
X6900Y4230
X7900Y4230
X8900Y4230
X11700Y9880
X11700Y10880
X11700Y12280
X11700Y13280
X9290Y12730
X8290Y12730
X7290Y12730
X6290Y12730
X5290Y12730
X4290Y12730
T05
X2240Y7930
X11340Y7930
M30
