G75*
%MOIN*%
%OFA0B0*%
%FSLAX25Y25*%
%IPPOS*%
%LPD*%
%AMOC8*
5,1,8,0,0,1.08239X$1,22.5*
%
%ADD10R,0.03000X0.05000*%
%ADD11C,0.07400*%
%ADD12R,0.06600X0.06600*%
%ADD13C,0.06600*%
%ADD14C,0.11811*%
%ADD15R,0.03937X0.05512*%
%ADD16R,0.03150X0.04724*%
%ADD17R,0.05118X0.05906*%
%ADD18R,0.04724X0.04724*%
%ADD19C,0.06000*%
%ADD20C,0.01500*%
%ADD21C,0.02378*%
D10*
X0034500Y0060300D03*
X0039500Y0060300D03*
X0044500Y0060300D03*
X0049500Y0060300D03*
X0054500Y0060300D03*
X0059500Y0060300D03*
X0064500Y0060300D03*
X0069500Y0060300D03*
X0074500Y0060300D03*
X0079500Y0060300D03*
X0084500Y0060300D03*
X0089500Y0060300D03*
X0094500Y0060300D03*
X0099500Y0060300D03*
X0099500Y0100800D03*
X0094500Y0100800D03*
X0089500Y0100800D03*
X0084500Y0100800D03*
X0079500Y0100800D03*
X0074500Y0100800D03*
X0069500Y0100800D03*
X0064500Y0100800D03*
X0059500Y0100800D03*
X0054500Y0100800D03*
X0049500Y0100800D03*
X0044500Y0100800D03*
X0039500Y0100800D03*
X0034500Y0100800D03*
D11*
X0117000Y0098800D03*
X0117000Y0108800D03*
X0117000Y0122800D03*
X0117000Y0132800D03*
X0089000Y0042300D03*
X0079000Y0042300D03*
X0069000Y0042300D03*
X0059000Y0042300D03*
X0049000Y0042300D03*
X0039000Y0042300D03*
D12*
X0051661Y0151119D03*
D13*
X0061622Y0151355D03*
X0071661Y0151394D03*
X0081701Y0151394D03*
D14*
X0114181Y0149426D03*
X0020874Y0149426D03*
X0020874Y0054544D03*
X0113787Y0054938D03*
D15*
X0107240Y0120969D03*
X0099760Y0120969D03*
X0103500Y0129631D03*
D16*
X0099957Y0113300D03*
X0107043Y0113300D03*
X0059043Y0139800D03*
X0051957Y0139800D03*
D17*
X0073654Y0143300D03*
X0080346Y0143300D03*
X0081654Y0109800D03*
X0088346Y0109800D03*
X0070846Y0109800D03*
X0064154Y0109800D03*
D18*
X0090866Y0160800D03*
X0099134Y0160800D03*
D19*
X0092900Y0130300D02*
X0092900Y0124300D01*
X0082900Y0124300D02*
X0082900Y0130300D01*
X0072900Y0130300D02*
X0072900Y0124300D01*
X0062900Y0124300D02*
X0062900Y0130300D01*
X0052900Y0130300D02*
X0052900Y0124300D01*
X0042900Y0124300D02*
X0042900Y0130300D01*
D20*
X0007500Y0164800D02*
X0007500Y0036800D01*
X0035424Y0036800D01*
X0035346Y0036832D01*
X0033532Y0038646D01*
X0032550Y0041017D01*
X0032550Y0043583D01*
X0033532Y0045954D01*
X0035346Y0047768D01*
X0035500Y0047832D01*
X0035500Y0053394D01*
X0036186Y0055050D01*
X0032453Y0055050D01*
X0031442Y0055469D01*
X0030669Y0056242D01*
X0030250Y0057253D01*
X0030250Y0063347D01*
X0030669Y0064358D01*
X0031000Y0064689D01*
X0031000Y0072697D01*
X0029001Y0070698D01*
X0026549Y0069283D01*
X0023815Y0068550D01*
X0020985Y0068550D01*
X0018251Y0069283D01*
X0015799Y0070698D01*
X0013798Y0072699D01*
X0012383Y0075151D01*
X0011650Y0077885D01*
X0011650Y0080715D01*
X0012383Y0083449D01*
X0013798Y0085901D01*
X0015799Y0087902D01*
X0018251Y0089317D01*
X0020985Y0090050D01*
X0023815Y0090050D01*
X0026549Y0089317D01*
X0029001Y0087902D01*
X0031000Y0085903D01*
X0031000Y0088800D01*
X0030707Y0088800D01*
X0028318Y0089790D01*
X0028318Y0089790D01*
X0026490Y0091618D01*
X0026490Y0091618D01*
X0025500Y0094007D01*
X0025500Y0095996D01*
X0025500Y0141973D01*
X0022596Y0140770D01*
X0019152Y0140770D01*
X0015971Y0142088D01*
X0013536Y0144523D01*
X0012219Y0147704D01*
X0012219Y0151148D01*
X0013536Y0154329D01*
X0015971Y0156764D01*
X0019152Y0158081D01*
X0022596Y0158081D01*
X0025777Y0156764D01*
X0025837Y0156704D01*
X0026718Y0158832D01*
X0026718Y0158832D01*
X0028968Y0161082D01*
X0028968Y0161082D01*
X0031909Y0162300D01*
X0079032Y0162300D01*
X0081862Y0161128D01*
X0081862Y0161128D01*
X0084028Y0158961D01*
X0084028Y0158961D01*
X0085020Y0156568D01*
X0085128Y0156523D01*
X0086830Y0154822D01*
X0087500Y0153203D01*
X0087500Y0155877D01*
X0086946Y0156106D01*
X0086173Y0156880D01*
X0085754Y0157891D01*
X0085754Y0163709D01*
X0086173Y0164720D01*
X0086253Y0164800D01*
X0007500Y0164800D01*
X0007500Y0163668D02*
X0085754Y0163668D01*
X0085754Y0162169D02*
X0079348Y0162169D01*
X0082319Y0160670D02*
X0085754Y0160670D01*
X0085754Y0159172D02*
X0083818Y0159172D01*
X0084562Y0157673D02*
X0085844Y0157673D01*
X0085476Y0156175D02*
X0086878Y0156175D01*
X0086890Y0154676D02*
X0087500Y0154676D01*
X0087500Y0149586D02*
X0087500Y0146800D01*
X0085662Y0146800D01*
X0086830Y0147967D01*
X0087500Y0149586D01*
X0087500Y0148682D02*
X0087126Y0148682D01*
X0087500Y0147184D02*
X0086046Y0147184D01*
X0088500Y0143300D02*
X0088598Y0143302D01*
X0088696Y0143308D01*
X0088794Y0143317D01*
X0088891Y0143331D01*
X0088988Y0143348D01*
X0089084Y0143369D01*
X0089179Y0143394D01*
X0089273Y0143422D01*
X0089365Y0143455D01*
X0089457Y0143490D01*
X0089547Y0143530D01*
X0089635Y0143572D01*
X0089722Y0143619D01*
X0089806Y0143668D01*
X0089889Y0143721D01*
X0089969Y0143777D01*
X0090048Y0143837D01*
X0090124Y0143899D01*
X0090197Y0143964D01*
X0090268Y0144032D01*
X0090336Y0144103D01*
X0090401Y0144176D01*
X0090463Y0144252D01*
X0090523Y0144331D01*
X0090579Y0144411D01*
X0090632Y0144494D01*
X0090681Y0144578D01*
X0090728Y0144665D01*
X0090770Y0144753D01*
X0090810Y0144843D01*
X0090845Y0144935D01*
X0090878Y0145027D01*
X0090906Y0145121D01*
X0090931Y0145216D01*
X0090952Y0145312D01*
X0090969Y0145409D01*
X0090983Y0145506D01*
X0090992Y0145604D01*
X0090998Y0145702D01*
X0091000Y0145800D01*
X0091000Y0160666D01*
X0090998Y0160687D01*
X0090993Y0160707D01*
X0090985Y0160727D01*
X0090974Y0160745D01*
X0090961Y0160761D01*
X0090945Y0160774D01*
X0090927Y0160785D01*
X0090907Y0160793D01*
X0090887Y0160798D01*
X0090866Y0160800D01*
X0094500Y0155988D02*
X0094786Y0156106D01*
X0095000Y0156320D01*
X0095214Y0156106D01*
X0096000Y0155781D01*
X0096000Y0142706D01*
X0096375Y0141800D01*
X0092985Y0141800D01*
X0093587Y0142401D01*
X0094500Y0144607D01*
X0094500Y0155988D01*
X0094855Y0156175D02*
X0095145Y0156175D01*
X0094500Y0154676D02*
X0096000Y0154676D01*
X0096000Y0153178D02*
X0094500Y0153178D01*
X0094500Y0151679D02*
X0096000Y0151679D01*
X0096000Y0150181D02*
X0094500Y0150181D01*
X0094500Y0148682D02*
X0096000Y0148682D01*
X0096000Y0147184D02*
X0094500Y0147184D01*
X0094500Y0145685D02*
X0096000Y0145685D01*
X0096000Y0144187D02*
X0094326Y0144187D01*
X0093705Y0142688D02*
X0096007Y0142688D01*
X0093587Y0142401D02*
X0093587Y0142401D01*
X0088500Y0143300D02*
X0080346Y0143300D01*
X0073654Y0143300D02*
X0063000Y0143300D01*
X0062924Y0143302D01*
X0062848Y0143308D01*
X0062773Y0143317D01*
X0062698Y0143331D01*
X0062624Y0143348D01*
X0062551Y0143369D01*
X0062479Y0143393D01*
X0062408Y0143422D01*
X0062339Y0143453D01*
X0062272Y0143488D01*
X0062207Y0143527D01*
X0062143Y0143569D01*
X0062082Y0143614D01*
X0062023Y0143662D01*
X0061967Y0143713D01*
X0061913Y0143767D01*
X0061862Y0143823D01*
X0061814Y0143882D01*
X0061769Y0143943D01*
X0061727Y0144007D01*
X0061688Y0144072D01*
X0061653Y0144139D01*
X0061622Y0144208D01*
X0061593Y0144279D01*
X0061569Y0144351D01*
X0061548Y0144424D01*
X0061531Y0144498D01*
X0061517Y0144573D01*
X0061508Y0144648D01*
X0061502Y0144724D01*
X0061500Y0144800D01*
X0061500Y0151233D01*
X0061502Y0151254D01*
X0061507Y0151275D01*
X0061516Y0151294D01*
X0061529Y0151311D01*
X0061544Y0151326D01*
X0061561Y0151339D01*
X0061580Y0151348D01*
X0061601Y0151353D01*
X0061622Y0151355D01*
X0066007Y0147184D02*
X0067316Y0147184D01*
X0067700Y0146800D02*
X0065623Y0146800D01*
X0066661Y0147838D01*
X0067700Y0146800D01*
X0071661Y0151394D02*
X0071696Y0151396D01*
X0071731Y0151401D01*
X0071766Y0151411D01*
X0071799Y0151423D01*
X0071831Y0151439D01*
X0071860Y0151459D01*
X0071888Y0151481D01*
X0071913Y0151506D01*
X0071935Y0151534D01*
X0071955Y0151564D01*
X0071971Y0151595D01*
X0071983Y0151628D01*
X0071993Y0151663D01*
X0071998Y0151698D01*
X0072000Y0151733D01*
X0072000Y0154300D01*
X0071998Y0154387D01*
X0071992Y0154474D01*
X0071983Y0154561D01*
X0071970Y0154647D01*
X0071953Y0154733D01*
X0071932Y0154818D01*
X0071907Y0154901D01*
X0071879Y0154984D01*
X0071848Y0155065D01*
X0071813Y0155145D01*
X0071774Y0155223D01*
X0071732Y0155300D01*
X0071687Y0155375D01*
X0071638Y0155447D01*
X0071587Y0155518D01*
X0071532Y0155586D01*
X0071475Y0155651D01*
X0071414Y0155714D01*
X0071351Y0155775D01*
X0071286Y0155832D01*
X0071218Y0155887D01*
X0071147Y0155938D01*
X0071075Y0155987D01*
X0071000Y0156032D01*
X0070923Y0156074D01*
X0070845Y0156113D01*
X0070765Y0156148D01*
X0070684Y0156179D01*
X0070601Y0156207D01*
X0070518Y0156232D01*
X0070433Y0156253D01*
X0070347Y0156270D01*
X0070261Y0156283D01*
X0070174Y0156292D01*
X0070087Y0156298D01*
X0070000Y0156300D01*
X0038000Y0156300D01*
X0037883Y0156298D01*
X0037766Y0156292D01*
X0037650Y0156282D01*
X0037533Y0156269D01*
X0037418Y0156251D01*
X0037303Y0156230D01*
X0037189Y0156205D01*
X0037075Y0156176D01*
X0036963Y0156143D01*
X0036852Y0156106D01*
X0036742Y0156066D01*
X0036634Y0156022D01*
X0036527Y0155975D01*
X0036421Y0155924D01*
X0036318Y0155869D01*
X0036216Y0155811D01*
X0036117Y0155750D01*
X0036019Y0155686D01*
X0035924Y0155618D01*
X0035831Y0155547D01*
X0035740Y0155473D01*
X0035652Y0155396D01*
X0035567Y0155316D01*
X0035484Y0155233D01*
X0035404Y0155148D01*
X0035327Y0155060D01*
X0035253Y0154969D01*
X0035182Y0154876D01*
X0035114Y0154781D01*
X0035050Y0154683D01*
X0034989Y0154584D01*
X0034931Y0154482D01*
X0034876Y0154379D01*
X0034825Y0154273D01*
X0034778Y0154166D01*
X0034734Y0154058D01*
X0034694Y0153948D01*
X0034657Y0153837D01*
X0034624Y0153725D01*
X0034595Y0153611D01*
X0034570Y0153497D01*
X0034549Y0153382D01*
X0034531Y0153267D01*
X0034518Y0153150D01*
X0034508Y0153034D01*
X0034502Y0152917D01*
X0034500Y0152800D01*
X0034500Y0100800D01*
X0033797Y0095550D02*
X0036547Y0095550D01*
X0037000Y0095738D01*
X0037453Y0095550D01*
X0041547Y0095550D01*
X0042000Y0095738D01*
X0042453Y0095550D01*
X0046547Y0095550D01*
X0047000Y0095738D01*
X0047453Y0095550D01*
X0051547Y0095550D01*
X0052000Y0095738D01*
X0052453Y0095550D01*
X0056547Y0095550D01*
X0057000Y0095738D01*
X0057453Y0095550D01*
X0061000Y0095550D01*
X0061000Y0093800D01*
X0055807Y0093800D01*
X0053601Y0092887D01*
X0051913Y0091199D01*
X0051913Y0091199D01*
X0051000Y0088993D01*
X0051000Y0065550D01*
X0047453Y0065550D01*
X0047000Y0065362D01*
X0046547Y0065550D01*
X0042453Y0065550D01*
X0042000Y0065362D01*
X0041547Y0065550D01*
X0038000Y0065550D01*
X0038000Y0090993D01*
X0037087Y0093199D01*
X0035399Y0094887D01*
X0035399Y0094887D01*
X0033797Y0095550D01*
X0032000Y0092300D02*
X0031893Y0092302D01*
X0031786Y0092308D01*
X0031679Y0092317D01*
X0031573Y0092331D01*
X0031467Y0092348D01*
X0031362Y0092369D01*
X0031258Y0092393D01*
X0031155Y0092422D01*
X0031053Y0092454D01*
X0030952Y0092489D01*
X0030852Y0092528D01*
X0030754Y0092571D01*
X0030657Y0092617D01*
X0030562Y0092667D01*
X0030469Y0092720D01*
X0030378Y0092776D01*
X0030289Y0092836D01*
X0030202Y0092898D01*
X0030118Y0092964D01*
X0030035Y0093033D01*
X0029956Y0093104D01*
X0029879Y0093179D01*
X0029804Y0093256D01*
X0029733Y0093335D01*
X0029664Y0093418D01*
X0029598Y0093502D01*
X0029536Y0093589D01*
X0029476Y0093678D01*
X0029420Y0093769D01*
X0029367Y0093862D01*
X0029317Y0093957D01*
X0029271Y0094054D01*
X0029228Y0094152D01*
X0029189Y0094252D01*
X0029154Y0094353D01*
X0029122Y0094455D01*
X0029093Y0094558D01*
X0029069Y0094662D01*
X0029048Y0094767D01*
X0029031Y0094873D01*
X0029017Y0094979D01*
X0029008Y0095086D01*
X0029002Y0095193D01*
X0029000Y0095300D01*
X0029000Y0154300D01*
X0026238Y0157673D02*
X0023581Y0157673D01*
X0027058Y0159172D02*
X0007500Y0159172D01*
X0007500Y0160670D02*
X0028557Y0160670D01*
X0031592Y0162169D02*
X0007500Y0162169D01*
X0007500Y0157673D02*
X0018167Y0157673D01*
X0015382Y0156175D02*
X0007500Y0156175D01*
X0007500Y0154676D02*
X0013884Y0154676D01*
X0013059Y0153178D02*
X0007500Y0153178D01*
X0007500Y0151679D02*
X0012439Y0151679D01*
X0012219Y0150181D02*
X0007500Y0150181D01*
X0007500Y0148682D02*
X0012219Y0148682D01*
X0012434Y0147184D02*
X0007500Y0147184D01*
X0007500Y0145685D02*
X0013055Y0145685D01*
X0013872Y0144187D02*
X0007500Y0144187D01*
X0007500Y0142688D02*
X0015371Y0142688D01*
X0018140Y0141190D02*
X0007500Y0141190D01*
X0007500Y0139691D02*
X0025500Y0139691D01*
X0025500Y0138193D02*
X0007500Y0138193D01*
X0007500Y0136694D02*
X0025500Y0136694D01*
X0025500Y0135196D02*
X0007500Y0135196D01*
X0007500Y0133697D02*
X0025500Y0133697D01*
X0025500Y0132199D02*
X0007500Y0132199D01*
X0007500Y0130700D02*
X0025500Y0130700D01*
X0025500Y0129202D02*
X0007500Y0129202D01*
X0007500Y0127703D02*
X0025500Y0127703D01*
X0025500Y0126205D02*
X0007500Y0126205D01*
X0007500Y0124706D02*
X0025500Y0124706D01*
X0025500Y0123208D02*
X0007500Y0123208D01*
X0007500Y0121709D02*
X0025500Y0121709D01*
X0025500Y0120211D02*
X0007500Y0120211D01*
X0007500Y0118712D02*
X0025500Y0118712D01*
X0025500Y0117214D02*
X0007500Y0117214D01*
X0007500Y0115715D02*
X0025500Y0115715D01*
X0025500Y0114217D02*
X0007500Y0114217D01*
X0007500Y0112718D02*
X0025500Y0112718D01*
X0025500Y0111220D02*
X0007500Y0111220D01*
X0007500Y0109721D02*
X0025500Y0109721D01*
X0025500Y0108223D02*
X0007500Y0108223D01*
X0007500Y0106724D02*
X0025500Y0106724D01*
X0025500Y0105226D02*
X0007500Y0105226D01*
X0007500Y0103727D02*
X0025500Y0103727D01*
X0025500Y0102229D02*
X0007500Y0102229D01*
X0007500Y0100730D02*
X0025500Y0100730D01*
X0025500Y0099232D02*
X0007500Y0099232D01*
X0007500Y0097733D02*
X0025500Y0097733D01*
X0025500Y0096234D02*
X0007500Y0096234D01*
X0007500Y0094736D02*
X0025500Y0094736D01*
X0025819Y0093237D02*
X0007500Y0093237D01*
X0007500Y0091739D02*
X0026439Y0091739D01*
X0027867Y0090240D02*
X0007500Y0090240D01*
X0007500Y0088742D02*
X0017254Y0088742D01*
X0015141Y0087243D02*
X0007500Y0087243D01*
X0007500Y0085745D02*
X0013708Y0085745D01*
X0012843Y0084246D02*
X0007500Y0084246D01*
X0007500Y0082748D02*
X0012195Y0082748D01*
X0011793Y0081249D02*
X0007500Y0081249D01*
X0007500Y0079751D02*
X0011650Y0079751D01*
X0011650Y0078252D02*
X0007500Y0078252D01*
X0007500Y0076754D02*
X0011953Y0076754D01*
X0012355Y0075255D02*
X0007500Y0075255D01*
X0007500Y0073757D02*
X0013187Y0073757D01*
X0014239Y0072258D02*
X0007500Y0072258D01*
X0007500Y0070760D02*
X0015737Y0070760D01*
X0018330Y0069261D02*
X0007500Y0069261D01*
X0007500Y0067763D02*
X0031000Y0067763D01*
X0031000Y0069261D02*
X0026470Y0069261D01*
X0029063Y0070760D02*
X0031000Y0070760D01*
X0031000Y0072258D02*
X0030561Y0072258D01*
X0031000Y0066264D02*
X0007500Y0066264D01*
X0007500Y0064766D02*
X0031000Y0064766D01*
X0030250Y0063267D02*
X0007500Y0063267D01*
X0007500Y0061769D02*
X0015858Y0061769D01*
X0015971Y0061882D02*
X0013536Y0059447D01*
X0012219Y0056266D01*
X0012219Y0052822D01*
X0013536Y0049641D01*
X0015971Y0047206D01*
X0019152Y0045889D01*
X0022596Y0045889D01*
X0025777Y0047206D01*
X0028212Y0049641D01*
X0029530Y0052822D01*
X0029530Y0056266D01*
X0028212Y0059447D01*
X0025777Y0061882D01*
X0022596Y0063200D01*
X0019152Y0063200D01*
X0015971Y0061882D01*
X0014359Y0060270D02*
X0007500Y0060270D01*
X0007500Y0058772D02*
X0013256Y0058772D01*
X0012636Y0057273D02*
X0007500Y0057273D01*
X0007500Y0055775D02*
X0012219Y0055775D01*
X0012219Y0054276D02*
X0007500Y0054276D01*
X0007500Y0052778D02*
X0012237Y0052778D01*
X0012858Y0051279D02*
X0007500Y0051279D01*
X0007500Y0049781D02*
X0013478Y0049781D01*
X0014895Y0048282D02*
X0007500Y0048282D01*
X0007500Y0046784D02*
X0016991Y0046784D01*
X0024757Y0046784D02*
X0034362Y0046784D01*
X0033255Y0045285D02*
X0007500Y0045285D01*
X0007500Y0043787D02*
X0032634Y0043787D01*
X0032550Y0042288D02*
X0007500Y0042288D01*
X0007500Y0040790D02*
X0032644Y0040790D01*
X0033265Y0039291D02*
X0007500Y0039291D01*
X0007500Y0037793D02*
X0034386Y0037793D01*
X0039000Y0042300D02*
X0039000Y0052300D01*
X0039002Y0052387D01*
X0039008Y0052474D01*
X0039017Y0052561D01*
X0039030Y0052647D01*
X0039047Y0052733D01*
X0039068Y0052818D01*
X0039093Y0052901D01*
X0039121Y0052984D01*
X0039152Y0053065D01*
X0039187Y0053145D01*
X0039226Y0053223D01*
X0039268Y0053300D01*
X0039313Y0053375D01*
X0039362Y0053447D01*
X0039413Y0053518D01*
X0039468Y0053586D01*
X0039525Y0053651D01*
X0039586Y0053714D01*
X0039649Y0053775D01*
X0039714Y0053832D01*
X0039782Y0053887D01*
X0039853Y0053938D01*
X0039925Y0053987D01*
X0040000Y0054032D01*
X0040077Y0054074D01*
X0040155Y0054113D01*
X0040235Y0054148D01*
X0040316Y0054179D01*
X0040399Y0054207D01*
X0040482Y0054232D01*
X0040567Y0054253D01*
X0040653Y0054270D01*
X0040739Y0054283D01*
X0040826Y0054292D01*
X0040913Y0054298D01*
X0041000Y0054300D01*
X0088000Y0054300D01*
X0088076Y0054302D01*
X0088152Y0054308D01*
X0088227Y0054317D01*
X0088302Y0054331D01*
X0088376Y0054348D01*
X0088449Y0054369D01*
X0088521Y0054393D01*
X0088592Y0054422D01*
X0088661Y0054453D01*
X0088728Y0054488D01*
X0088793Y0054527D01*
X0088857Y0054569D01*
X0088918Y0054614D01*
X0088977Y0054662D01*
X0089033Y0054713D01*
X0089087Y0054767D01*
X0089138Y0054823D01*
X0089186Y0054882D01*
X0089231Y0054943D01*
X0089273Y0055007D01*
X0089312Y0055072D01*
X0089347Y0055139D01*
X0089378Y0055208D01*
X0089407Y0055279D01*
X0089431Y0055351D01*
X0089452Y0055424D01*
X0089469Y0055498D01*
X0089483Y0055573D01*
X0089492Y0055648D01*
X0089498Y0055724D01*
X0089500Y0055800D01*
X0089500Y0060300D01*
X0094500Y0060300D02*
X0094500Y0054300D01*
X0094498Y0054202D01*
X0094492Y0054104D01*
X0094483Y0054006D01*
X0094469Y0053909D01*
X0094452Y0053812D01*
X0094431Y0053716D01*
X0094406Y0053621D01*
X0094378Y0053527D01*
X0094345Y0053435D01*
X0094310Y0053343D01*
X0094270Y0053253D01*
X0094228Y0053165D01*
X0094181Y0053078D01*
X0094132Y0052994D01*
X0094079Y0052911D01*
X0094023Y0052831D01*
X0093963Y0052752D01*
X0093901Y0052676D01*
X0093836Y0052603D01*
X0093768Y0052532D01*
X0093697Y0052464D01*
X0093624Y0052399D01*
X0093548Y0052337D01*
X0093469Y0052277D01*
X0093389Y0052221D01*
X0093306Y0052168D01*
X0093222Y0052119D01*
X0093135Y0052072D01*
X0093047Y0052030D01*
X0092957Y0051990D01*
X0092865Y0051955D01*
X0092773Y0051922D01*
X0092679Y0051894D01*
X0092584Y0051869D01*
X0092488Y0051848D01*
X0092391Y0051831D01*
X0092294Y0051817D01*
X0092196Y0051808D01*
X0092098Y0051802D01*
X0092000Y0051800D01*
X0050500Y0051800D01*
X0050424Y0051798D01*
X0050348Y0051792D01*
X0050273Y0051783D01*
X0050198Y0051769D01*
X0050124Y0051752D01*
X0050051Y0051731D01*
X0049979Y0051707D01*
X0049908Y0051678D01*
X0049839Y0051647D01*
X0049772Y0051612D01*
X0049707Y0051573D01*
X0049643Y0051531D01*
X0049582Y0051486D01*
X0049523Y0051438D01*
X0049467Y0051387D01*
X0049413Y0051333D01*
X0049362Y0051277D01*
X0049314Y0051218D01*
X0049269Y0051157D01*
X0049227Y0051093D01*
X0049188Y0051028D01*
X0049153Y0050961D01*
X0049122Y0050892D01*
X0049093Y0050821D01*
X0049069Y0050749D01*
X0049048Y0050676D01*
X0049031Y0050602D01*
X0049017Y0050527D01*
X0049008Y0050452D01*
X0049002Y0050376D01*
X0049000Y0050300D01*
X0049000Y0042300D01*
X0053614Y0037793D02*
X0054386Y0037793D01*
X0054000Y0038178D02*
X0055346Y0036832D01*
X0055424Y0036800D01*
X0052576Y0036800D01*
X0052654Y0036832D01*
X0054000Y0038178D01*
X0059000Y0042300D02*
X0059000Y0047800D01*
X0059002Y0047876D01*
X0059008Y0047952D01*
X0059017Y0048027D01*
X0059031Y0048102D01*
X0059048Y0048176D01*
X0059069Y0048249D01*
X0059093Y0048321D01*
X0059122Y0048392D01*
X0059153Y0048461D01*
X0059188Y0048528D01*
X0059227Y0048593D01*
X0059269Y0048657D01*
X0059314Y0048718D01*
X0059362Y0048777D01*
X0059413Y0048833D01*
X0059467Y0048887D01*
X0059523Y0048938D01*
X0059582Y0048986D01*
X0059643Y0049031D01*
X0059707Y0049073D01*
X0059772Y0049112D01*
X0059839Y0049147D01*
X0059908Y0049178D01*
X0059979Y0049207D01*
X0060051Y0049231D01*
X0060124Y0049252D01*
X0060198Y0049269D01*
X0060273Y0049283D01*
X0060348Y0049292D01*
X0060424Y0049298D01*
X0060500Y0049300D01*
X0098000Y0049300D01*
X0098076Y0049302D01*
X0098152Y0049308D01*
X0098227Y0049317D01*
X0098302Y0049331D01*
X0098376Y0049348D01*
X0098449Y0049369D01*
X0098521Y0049393D01*
X0098592Y0049422D01*
X0098661Y0049453D01*
X0098728Y0049488D01*
X0098793Y0049527D01*
X0098857Y0049569D01*
X0098918Y0049614D01*
X0098977Y0049662D01*
X0099033Y0049713D01*
X0099087Y0049767D01*
X0099138Y0049823D01*
X0099186Y0049882D01*
X0099231Y0049943D01*
X0099273Y0050007D01*
X0099312Y0050072D01*
X0099347Y0050139D01*
X0099378Y0050208D01*
X0099407Y0050279D01*
X0099431Y0050351D01*
X0099452Y0050424D01*
X0099469Y0050498D01*
X0099483Y0050573D01*
X0099492Y0050648D01*
X0099498Y0050724D01*
X0099500Y0050800D01*
X0099500Y0060300D01*
X0100000Y0065550D02*
X0097453Y0065550D01*
X0097000Y0065362D01*
X0096547Y0065550D01*
X0092453Y0065550D01*
X0092000Y0065362D01*
X0091547Y0065550D01*
X0087453Y0065550D01*
X0087000Y0065362D01*
X0086547Y0065550D01*
X0082453Y0065550D01*
X0082000Y0065362D01*
X0081547Y0065550D01*
X0077453Y0065550D01*
X0077000Y0065362D01*
X0076547Y0065550D01*
X0072453Y0065550D01*
X0072000Y0065362D01*
X0071547Y0065550D01*
X0067453Y0065550D01*
X0067000Y0065362D01*
X0066547Y0065550D01*
X0062453Y0065550D01*
X0062000Y0065362D01*
X0061547Y0065550D01*
X0058000Y0065550D01*
X0058000Y0086800D01*
X0063193Y0086800D01*
X0065399Y0087713D01*
X0067087Y0089401D01*
X0067484Y0090361D01*
X0068784Y0090361D01*
X0069843Y0090800D01*
X0094706Y0090800D01*
X0096000Y0091547D01*
X0096000Y0069104D01*
X0096533Y0067817D01*
X0097517Y0066833D01*
X0098804Y0066300D01*
X0099500Y0066300D01*
X0099598Y0066290D01*
X0099778Y0066216D01*
X0099916Y0066078D01*
X0099990Y0065898D01*
X0100000Y0065800D01*
X0100000Y0065550D01*
X0103500Y0065800D02*
X0103498Y0065926D01*
X0103492Y0066051D01*
X0103482Y0066176D01*
X0103468Y0066301D01*
X0103451Y0066426D01*
X0103429Y0066550D01*
X0103404Y0066673D01*
X0103374Y0066795D01*
X0103341Y0066916D01*
X0103304Y0067036D01*
X0103264Y0067155D01*
X0103219Y0067272D01*
X0103171Y0067389D01*
X0103119Y0067503D01*
X0103064Y0067616D01*
X0103005Y0067727D01*
X0102943Y0067836D01*
X0102877Y0067943D01*
X0102808Y0068048D01*
X0102736Y0068151D01*
X0102661Y0068252D01*
X0102582Y0068350D01*
X0102500Y0068445D01*
X0102416Y0068538D01*
X0102328Y0068628D01*
X0102238Y0068716D01*
X0102145Y0068800D01*
X0102050Y0068882D01*
X0101952Y0068961D01*
X0101851Y0069036D01*
X0101748Y0069108D01*
X0101643Y0069177D01*
X0101536Y0069243D01*
X0101427Y0069305D01*
X0101316Y0069364D01*
X0101203Y0069419D01*
X0101089Y0069471D01*
X0100972Y0069519D01*
X0100855Y0069564D01*
X0100736Y0069604D01*
X0100616Y0069641D01*
X0100495Y0069674D01*
X0100373Y0069704D01*
X0100250Y0069729D01*
X0100126Y0069751D01*
X0100001Y0069768D01*
X0099876Y0069782D01*
X0099751Y0069792D01*
X0099626Y0069798D01*
X0099500Y0069800D01*
X0099500Y0100800D01*
X0103750Y0100730D02*
X0110818Y0100730D01*
X0110550Y0100083D02*
X0110550Y0097517D01*
X0111532Y0095146D01*
X0113346Y0093332D01*
X0115717Y0092350D01*
X0118283Y0092350D01*
X0120654Y0093332D01*
X0122468Y0095146D01*
X0123450Y0097517D01*
X0123450Y0100083D01*
X0122468Y0102454D01*
X0121122Y0103800D01*
X0122468Y0105146D01*
X0123450Y0107517D01*
X0123450Y0110083D01*
X0122468Y0112454D01*
X0120654Y0114268D01*
X0118283Y0115250D01*
X0115717Y0115250D01*
X0115000Y0114953D01*
X0115000Y0116647D01*
X0115717Y0116350D01*
X0118283Y0116350D01*
X0120654Y0117332D01*
X0122468Y0119146D01*
X0123450Y0121517D01*
X0123450Y0124083D01*
X0122468Y0126454D01*
X0121122Y0127800D01*
X0122468Y0129146D01*
X0123450Y0131517D01*
X0123450Y0134083D01*
X0122468Y0136454D01*
X0120654Y0138268D01*
X0118283Y0139250D01*
X0115717Y0139250D01*
X0113346Y0138268D01*
X0111532Y0136454D01*
X0111468Y0136300D01*
X0111000Y0136300D01*
X0111000Y0140093D01*
X0110359Y0141641D01*
X0112459Y0140770D01*
X0115903Y0140770D01*
X0119084Y0142088D01*
X0121519Y0144523D01*
X0122837Y0147704D01*
X0122837Y0151148D01*
X0121519Y0154329D01*
X0119084Y0156764D01*
X0115903Y0158081D01*
X0112459Y0158081D01*
X0109278Y0156764D01*
X0106843Y0154329D01*
X0105526Y0151148D01*
X0105526Y0147704D01*
X0106672Y0144936D01*
X0105793Y0145300D01*
X0103000Y0145300D01*
X0103000Y0156084D01*
X0103054Y0156106D01*
X0103827Y0156880D01*
X0104246Y0157891D01*
X0104246Y0163709D01*
X0103827Y0164720D01*
X0103747Y0164800D01*
X0127000Y0164800D01*
X0127000Y0036800D01*
X0092576Y0036800D01*
X0092654Y0036832D01*
X0094468Y0038646D01*
X0094532Y0038800D01*
X0102193Y0038800D01*
X0104399Y0039713D01*
X0106087Y0041401D01*
X0107000Y0043607D01*
X0107000Y0049484D01*
X0108884Y0047600D01*
X0112066Y0046282D01*
X0115509Y0046282D01*
X0118690Y0047600D01*
X0121125Y0050035D01*
X0122443Y0053216D01*
X0122443Y0056659D01*
X0121125Y0059841D01*
X0118690Y0062276D01*
X0115509Y0063593D01*
X0112066Y0063593D01*
X0108884Y0062276D01*
X0107000Y0060391D01*
X0107000Y0067292D01*
X0105858Y0070048D01*
X0105858Y0070048D01*
X0103748Y0072158D01*
X0103000Y0072468D01*
X0103000Y0076579D01*
X0103383Y0075151D01*
X0104798Y0072699D01*
X0106799Y0070698D01*
X0109251Y0069283D01*
X0111985Y0068550D01*
X0114815Y0068550D01*
X0117549Y0069283D01*
X0120001Y0070698D01*
X0122002Y0072699D01*
X0123417Y0075151D01*
X0124150Y0077885D01*
X0124150Y0080715D01*
X0123417Y0083449D01*
X0122002Y0085901D01*
X0120001Y0087902D01*
X0117549Y0089317D01*
X0114815Y0090050D01*
X0111985Y0090050D01*
X0109251Y0089317D01*
X0106799Y0087902D01*
X0104798Y0085901D01*
X0103383Y0083449D01*
X0103000Y0082021D01*
X0103000Y0096411D01*
X0103331Y0096742D01*
X0103750Y0097753D01*
X0103750Y0103847D01*
X0103331Y0104858D01*
X0102558Y0105631D01*
X0102150Y0105800D01*
X0105693Y0105800D01*
X0107899Y0106713D01*
X0108818Y0107632D01*
X0108913Y0107401D01*
X0110601Y0105713D01*
X0111441Y0105366D01*
X0111532Y0105146D01*
X0112878Y0103800D01*
X0111532Y0102454D01*
X0110550Y0100083D01*
X0110550Y0099232D02*
X0103750Y0099232D01*
X0103742Y0097733D02*
X0110550Y0097733D01*
X0111081Y0096234D02*
X0103000Y0096234D01*
X0103000Y0094736D02*
X0111942Y0094736D01*
X0113574Y0093237D02*
X0103000Y0093237D01*
X0103000Y0091739D02*
X0127000Y0091739D01*
X0127000Y0093237D02*
X0120426Y0093237D01*
X0122058Y0094736D02*
X0127000Y0094736D01*
X0127000Y0096234D02*
X0122919Y0096234D01*
X0123450Y0097733D02*
X0127000Y0097733D01*
X0127000Y0099232D02*
X0123450Y0099232D01*
X0123182Y0100730D02*
X0127000Y0100730D01*
X0127000Y0102229D02*
X0122561Y0102229D01*
X0121195Y0103727D02*
X0127000Y0103727D01*
X0127000Y0105226D02*
X0122501Y0105226D01*
X0123122Y0106724D02*
X0127000Y0106724D01*
X0127000Y0108223D02*
X0123450Y0108223D01*
X0123450Y0109721D02*
X0127000Y0109721D01*
X0127000Y0111220D02*
X0122979Y0111220D01*
X0122204Y0112718D02*
X0127000Y0112718D01*
X0127000Y0114217D02*
X0120705Y0114217D01*
X0120368Y0117214D02*
X0127000Y0117214D01*
X0127000Y0118712D02*
X0122034Y0118712D01*
X0122909Y0120211D02*
X0127000Y0120211D01*
X0127000Y0121709D02*
X0123450Y0121709D01*
X0123450Y0123208D02*
X0127000Y0123208D01*
X0127000Y0124706D02*
X0123192Y0124706D01*
X0122571Y0126205D02*
X0127000Y0126205D01*
X0127000Y0127703D02*
X0121218Y0127703D01*
X0122491Y0129202D02*
X0127000Y0129202D01*
X0127000Y0130700D02*
X0123112Y0130700D01*
X0123450Y0132199D02*
X0127000Y0132199D01*
X0127000Y0133697D02*
X0123450Y0133697D01*
X0122989Y0135196D02*
X0127000Y0135196D01*
X0127000Y0136694D02*
X0122227Y0136694D01*
X0120729Y0138193D02*
X0127000Y0138193D01*
X0127000Y0139691D02*
X0111000Y0139691D01*
X0111000Y0138193D02*
X0113271Y0138193D01*
X0111773Y0136694D02*
X0111000Y0136694D01*
X0107500Y0135800D02*
X0107502Y0135693D01*
X0107508Y0135586D01*
X0107517Y0135479D01*
X0107531Y0135373D01*
X0107548Y0135267D01*
X0107569Y0135162D01*
X0107593Y0135058D01*
X0107622Y0134955D01*
X0107654Y0134853D01*
X0107689Y0134752D01*
X0107728Y0134652D01*
X0107771Y0134554D01*
X0107817Y0134457D01*
X0107867Y0134362D01*
X0107920Y0134269D01*
X0107976Y0134178D01*
X0108036Y0134089D01*
X0108098Y0134002D01*
X0108164Y0133918D01*
X0108233Y0133835D01*
X0108304Y0133756D01*
X0108379Y0133679D01*
X0108456Y0133604D01*
X0108535Y0133533D01*
X0108618Y0133464D01*
X0108702Y0133398D01*
X0108789Y0133336D01*
X0108878Y0133276D01*
X0108969Y0133220D01*
X0109062Y0133167D01*
X0109157Y0133117D01*
X0109254Y0133071D01*
X0109352Y0133028D01*
X0109452Y0132989D01*
X0109553Y0132954D01*
X0109655Y0132922D01*
X0109758Y0132893D01*
X0109862Y0132869D01*
X0109967Y0132848D01*
X0110073Y0132831D01*
X0110179Y0132817D01*
X0110286Y0132808D01*
X0110393Y0132802D01*
X0110500Y0132800D01*
X0117000Y0132800D01*
X0111500Y0128300D02*
X0111500Y0110800D01*
X0111502Y0110702D01*
X0111508Y0110604D01*
X0111517Y0110506D01*
X0111531Y0110409D01*
X0111548Y0110312D01*
X0111569Y0110216D01*
X0111594Y0110121D01*
X0111622Y0110027D01*
X0111655Y0109935D01*
X0111690Y0109843D01*
X0111730Y0109753D01*
X0111772Y0109665D01*
X0111819Y0109578D01*
X0111868Y0109494D01*
X0111921Y0109411D01*
X0111977Y0109331D01*
X0112037Y0109252D01*
X0112099Y0109176D01*
X0112164Y0109103D01*
X0112232Y0109032D01*
X0112303Y0108964D01*
X0112376Y0108899D01*
X0112452Y0108837D01*
X0112531Y0108777D01*
X0112611Y0108721D01*
X0112694Y0108668D01*
X0112778Y0108619D01*
X0112865Y0108572D01*
X0112953Y0108530D01*
X0113043Y0108490D01*
X0113135Y0108455D01*
X0113227Y0108422D01*
X0113321Y0108394D01*
X0113416Y0108369D01*
X0113512Y0108348D01*
X0113609Y0108331D01*
X0113706Y0108317D01*
X0113804Y0108308D01*
X0113902Y0108302D01*
X0114000Y0108300D01*
X0116500Y0108300D01*
X0116544Y0108302D01*
X0116587Y0108308D01*
X0116629Y0108317D01*
X0116671Y0108330D01*
X0116711Y0108347D01*
X0116750Y0108367D01*
X0116787Y0108390D01*
X0116821Y0108417D01*
X0116854Y0108446D01*
X0116883Y0108479D01*
X0116910Y0108513D01*
X0116933Y0108550D01*
X0116953Y0108589D01*
X0116970Y0108629D01*
X0116983Y0108671D01*
X0116992Y0108713D01*
X0116998Y0108756D01*
X0117000Y0108800D01*
X0111499Y0105226D02*
X0102963Y0105226D01*
X0103750Y0103727D02*
X0112805Y0103727D01*
X0111439Y0102229D02*
X0103750Y0102229D01*
X0107899Y0106713D02*
X0107899Y0106713D01*
X0107909Y0106724D02*
X0109591Y0106724D01*
X0108913Y0107401D02*
X0108913Y0107401D01*
X0110601Y0105713D02*
X0110601Y0105713D01*
X0104500Y0109300D02*
X0088846Y0109300D01*
X0088844Y0109344D01*
X0088838Y0109387D01*
X0088829Y0109429D01*
X0088816Y0109471D01*
X0088799Y0109511D01*
X0088779Y0109550D01*
X0088756Y0109587D01*
X0088729Y0109621D01*
X0088700Y0109654D01*
X0088667Y0109683D01*
X0088633Y0109710D01*
X0088596Y0109733D01*
X0088557Y0109753D01*
X0088517Y0109770D01*
X0088475Y0109783D01*
X0088433Y0109792D01*
X0088390Y0109798D01*
X0088346Y0109800D01*
X0088346Y0108662D01*
X0088346Y0109800D02*
X0088344Y0109836D01*
X0088338Y0109872D01*
X0088329Y0109907D01*
X0088316Y0109941D01*
X0088300Y0109973D01*
X0088280Y0110003D01*
X0088257Y0110032D01*
X0088232Y0110057D01*
X0088203Y0110080D01*
X0088173Y0110100D01*
X0088141Y0110116D01*
X0088107Y0110129D01*
X0088072Y0110138D01*
X0088036Y0110144D01*
X0088000Y0110146D01*
X0088000Y0115800D01*
X0091939Y0115715D02*
X0095632Y0115715D01*
X0095632Y0116209D02*
X0095632Y0112800D01*
X0093655Y0112800D01*
X0093655Y0113300D01*
X0093237Y0114310D01*
X0092463Y0115084D01*
X0091939Y0115301D01*
X0091939Y0116584D01*
X0091339Y0118031D01*
X0090231Y0119139D01*
X0088784Y0119739D01*
X0087216Y0119739D01*
X0085769Y0119139D01*
X0084661Y0118031D01*
X0084061Y0116584D01*
X0084061Y0115503D01*
X0078547Y0115503D01*
X0077537Y0115084D01*
X0076763Y0114310D01*
X0076345Y0113300D01*
X0076155Y0113300D01*
X0075737Y0114310D01*
X0074963Y0115084D01*
X0073953Y0115503D01*
X0067740Y0115503D01*
X0067500Y0115403D01*
X0067260Y0115503D01*
X0061047Y0115503D01*
X0060037Y0115084D01*
X0059263Y0114310D01*
X0058845Y0113300D01*
X0056400Y0113300D01*
X0056400Y0119668D01*
X0057775Y0121043D01*
X0057900Y0121346D01*
X0058025Y0121043D01*
X0059643Y0119425D01*
X0061756Y0118550D01*
X0064044Y0118550D01*
X0066157Y0119425D01*
X0067775Y0121043D01*
X0067900Y0121346D01*
X0068025Y0121043D01*
X0069643Y0119425D01*
X0071756Y0118550D01*
X0074044Y0118550D01*
X0076157Y0119425D01*
X0077775Y0121043D01*
X0077900Y0121346D01*
X0078025Y0121043D01*
X0079643Y0119425D01*
X0081756Y0118550D01*
X0084044Y0118550D01*
X0086157Y0119425D01*
X0087775Y0121043D01*
X0087900Y0121346D01*
X0088025Y0121043D01*
X0089643Y0119425D01*
X0091756Y0118550D01*
X0094044Y0118550D01*
X0095041Y0118963D01*
X0095041Y0117666D01*
X0095460Y0116656D01*
X0095712Y0116403D01*
X0095632Y0116209D01*
X0095229Y0117214D02*
X0091678Y0117214D01*
X0091365Y0118712D02*
X0090658Y0118712D01*
X0088858Y0120211D02*
X0086942Y0120211D01*
X0085342Y0118712D02*
X0084435Y0118712D01*
X0084322Y0117214D02*
X0056400Y0117214D01*
X0056400Y0118712D02*
X0061365Y0118712D01*
X0058858Y0120211D02*
X0056942Y0120211D01*
X0056400Y0115715D02*
X0084061Y0115715D01*
X0081365Y0118712D02*
X0074435Y0118712D01*
X0076942Y0120211D02*
X0078858Y0120211D01*
X0071365Y0118712D02*
X0064435Y0118712D01*
X0066942Y0120211D02*
X0068858Y0120211D01*
X0075776Y0114217D02*
X0076724Y0114217D01*
X0081654Y0109800D02*
X0070846Y0109800D01*
X0064500Y0109454D02*
X0064464Y0109456D01*
X0064428Y0109462D01*
X0064393Y0109471D01*
X0064359Y0109484D01*
X0064327Y0109500D01*
X0064297Y0109520D01*
X0064268Y0109543D01*
X0064243Y0109568D01*
X0064220Y0109597D01*
X0064200Y0109627D01*
X0064184Y0109659D01*
X0064171Y0109693D01*
X0064162Y0109728D01*
X0064156Y0109764D01*
X0064154Y0109800D01*
X0055500Y0109800D01*
X0055400Y0109802D01*
X0055301Y0109808D01*
X0055202Y0109817D01*
X0055103Y0109830D01*
X0055005Y0109848D01*
X0054908Y0109868D01*
X0054811Y0109893D01*
X0054716Y0109921D01*
X0054621Y0109953D01*
X0054528Y0109988D01*
X0054436Y0110027D01*
X0054346Y0110070D01*
X0054258Y0110116D01*
X0054171Y0110165D01*
X0054087Y0110218D01*
X0054004Y0110273D01*
X0053924Y0110332D01*
X0053846Y0110394D01*
X0053770Y0110459D01*
X0053697Y0110527D01*
X0053627Y0110597D01*
X0053559Y0110670D01*
X0053494Y0110746D01*
X0053432Y0110824D01*
X0053373Y0110904D01*
X0053318Y0110987D01*
X0053265Y0111071D01*
X0053216Y0111158D01*
X0053170Y0111246D01*
X0053127Y0111336D01*
X0053088Y0111428D01*
X0053053Y0111521D01*
X0053021Y0111616D01*
X0052993Y0111711D01*
X0052968Y0111808D01*
X0052948Y0111905D01*
X0052930Y0112003D01*
X0052917Y0112102D01*
X0052908Y0112201D01*
X0052902Y0112300D01*
X0052900Y0112400D01*
X0052900Y0127300D01*
X0052900Y0131700D01*
X0052902Y0131818D01*
X0052908Y0131935D01*
X0052917Y0132053D01*
X0052931Y0132170D01*
X0052948Y0132286D01*
X0052969Y0132402D01*
X0052994Y0132517D01*
X0053023Y0132632D01*
X0053055Y0132745D01*
X0053091Y0132857D01*
X0053131Y0132968D01*
X0053174Y0133078D01*
X0053221Y0133186D01*
X0053271Y0133292D01*
X0053325Y0133397D01*
X0053382Y0133500D01*
X0053443Y0133601D01*
X0053507Y0133700D01*
X0053574Y0133797D01*
X0053644Y0133892D01*
X0053717Y0133984D01*
X0053793Y0134074D01*
X0053872Y0134161D01*
X0053954Y0134246D01*
X0054039Y0134328D01*
X0054126Y0134407D01*
X0054216Y0134483D01*
X0054308Y0134556D01*
X0054403Y0134626D01*
X0054500Y0134693D01*
X0054599Y0134757D01*
X0054700Y0134818D01*
X0054803Y0134875D01*
X0054908Y0134929D01*
X0055014Y0134979D01*
X0055122Y0135026D01*
X0055232Y0135069D01*
X0055343Y0135109D01*
X0055455Y0135145D01*
X0055568Y0135177D01*
X0055683Y0135206D01*
X0055798Y0135231D01*
X0055914Y0135252D01*
X0056030Y0135269D01*
X0056147Y0135283D01*
X0056265Y0135292D01*
X0056382Y0135298D01*
X0056500Y0135300D01*
X0096500Y0135300D01*
X0096611Y0135298D01*
X0096722Y0135292D01*
X0096833Y0135283D01*
X0096944Y0135270D01*
X0097054Y0135253D01*
X0097163Y0135232D01*
X0097272Y0135207D01*
X0097380Y0135179D01*
X0097486Y0135147D01*
X0097592Y0135112D01*
X0097696Y0135073D01*
X0097799Y0135030D01*
X0097900Y0134984D01*
X0098000Y0134935D01*
X0098098Y0134882D01*
X0098194Y0134825D01*
X0098288Y0134766D01*
X0098380Y0134703D01*
X0098470Y0134638D01*
X0098557Y0134569D01*
X0098642Y0134497D01*
X0098725Y0134423D01*
X0098805Y0134345D01*
X0098883Y0134265D01*
X0098957Y0134182D01*
X0099029Y0134097D01*
X0099098Y0134010D01*
X0099163Y0133920D01*
X0099226Y0133828D01*
X0099285Y0133734D01*
X0099342Y0133638D01*
X0099395Y0133540D01*
X0099444Y0133440D01*
X0099490Y0133339D01*
X0099533Y0133236D01*
X0099572Y0133132D01*
X0099607Y0133026D01*
X0099639Y0132920D01*
X0099667Y0132812D01*
X0099692Y0132703D01*
X0099713Y0132594D01*
X0099730Y0132484D01*
X0099743Y0132373D01*
X0099752Y0132262D01*
X0099758Y0132151D01*
X0099760Y0132040D01*
X0099760Y0120969D01*
X0099760Y0113497D01*
X0099957Y0113300D01*
X0095632Y0114217D02*
X0093276Y0114217D01*
X0094435Y0118712D02*
X0095041Y0118712D01*
X0099700Y0120650D02*
X0099760Y0120969D01*
X0106700Y0122200D02*
X0107240Y0121660D01*
X0107240Y0120969D01*
X0107240Y0113497D01*
X0107043Y0113300D01*
X0107000Y0113257D01*
X0107000Y0111800D01*
X0106998Y0111702D01*
X0106992Y0111604D01*
X0106983Y0111506D01*
X0106969Y0111409D01*
X0106952Y0111312D01*
X0106931Y0111216D01*
X0106906Y0111121D01*
X0106878Y0111027D01*
X0106845Y0110935D01*
X0106810Y0110843D01*
X0106770Y0110753D01*
X0106728Y0110665D01*
X0106681Y0110578D01*
X0106632Y0110494D01*
X0106579Y0110411D01*
X0106523Y0110331D01*
X0106463Y0110252D01*
X0106401Y0110176D01*
X0106336Y0110103D01*
X0106268Y0110032D01*
X0106197Y0109964D01*
X0106124Y0109899D01*
X0106048Y0109837D01*
X0105969Y0109777D01*
X0105889Y0109721D01*
X0105806Y0109668D01*
X0105722Y0109619D01*
X0105635Y0109572D01*
X0105547Y0109530D01*
X0105457Y0109490D01*
X0105365Y0109455D01*
X0105273Y0109422D01*
X0105179Y0109394D01*
X0105084Y0109369D01*
X0104988Y0109348D01*
X0104891Y0109331D01*
X0104794Y0109317D01*
X0104696Y0109308D01*
X0104598Y0109302D01*
X0104500Y0109300D01*
X0115000Y0115715D02*
X0127000Y0115715D01*
X0111500Y0128300D02*
X0111498Y0128372D01*
X0111492Y0128444D01*
X0111482Y0128515D01*
X0111469Y0128586D01*
X0111451Y0128656D01*
X0111430Y0128725D01*
X0111405Y0128793D01*
X0111377Y0128859D01*
X0111345Y0128923D01*
X0111309Y0128986D01*
X0111271Y0129047D01*
X0111229Y0129105D01*
X0111183Y0129162D01*
X0111135Y0129215D01*
X0111084Y0129266D01*
X0111031Y0129314D01*
X0110974Y0129360D01*
X0110916Y0129402D01*
X0110855Y0129440D01*
X0110792Y0129476D01*
X0110728Y0129508D01*
X0110662Y0129536D01*
X0110594Y0129561D01*
X0110525Y0129582D01*
X0110455Y0129600D01*
X0110384Y0129613D01*
X0110313Y0129623D01*
X0110241Y0129629D01*
X0110169Y0129631D01*
X0103500Y0129631D01*
X0103500Y0135631D01*
X0103498Y0135733D01*
X0103492Y0135835D01*
X0103482Y0135937D01*
X0103469Y0136038D01*
X0103451Y0136139D01*
X0103430Y0136239D01*
X0103405Y0136338D01*
X0103376Y0136436D01*
X0103343Y0136533D01*
X0103307Y0136629D01*
X0103266Y0136723D01*
X0103223Y0136815D01*
X0103176Y0136906D01*
X0103125Y0136995D01*
X0103071Y0137082D01*
X0103014Y0137167D01*
X0102954Y0137249D01*
X0102890Y0137329D01*
X0102824Y0137407D01*
X0102754Y0137482D01*
X0102682Y0137554D01*
X0102607Y0137624D01*
X0102529Y0137690D01*
X0102449Y0137754D01*
X0102367Y0137814D01*
X0102282Y0137871D01*
X0102195Y0137925D01*
X0102106Y0137976D01*
X0102015Y0138023D01*
X0101923Y0138066D01*
X0101829Y0138107D01*
X0101733Y0138143D01*
X0101636Y0138176D01*
X0101538Y0138205D01*
X0101439Y0138230D01*
X0101339Y0138251D01*
X0101238Y0138269D01*
X0101137Y0138282D01*
X0101035Y0138292D01*
X0100933Y0138298D01*
X0100831Y0138300D01*
X0060543Y0138300D01*
X0059043Y0139800D01*
X0056921Y0144912D02*
X0055911Y0144494D01*
X0055500Y0144083D01*
X0055161Y0144421D01*
X0055161Y0145069D01*
X0055508Y0145069D01*
X0056519Y0145488D01*
X0057293Y0146261D01*
X0057547Y0146874D01*
X0058000Y0146421D01*
X0058000Y0144912D01*
X0056921Y0144912D01*
X0056717Y0145685D02*
X0058000Y0145685D01*
X0055604Y0144187D02*
X0055396Y0144187D01*
X0051662Y0140095D02*
X0051664Y0140062D01*
X0051669Y0140029D01*
X0051679Y0139998D01*
X0051691Y0139967D01*
X0051707Y0139938D01*
X0051726Y0139911D01*
X0051748Y0139886D01*
X0051773Y0139864D01*
X0051800Y0139845D01*
X0051829Y0139829D01*
X0051860Y0139817D01*
X0051891Y0139807D01*
X0051924Y0139802D01*
X0051957Y0139800D01*
X0051661Y0140095D02*
X0051661Y0151119D01*
X0051799Y0151119D01*
X0051661Y0151119D02*
X0051661Y0151505D01*
X0051980Y0151300D02*
X0051954Y0151298D01*
X0051929Y0151293D01*
X0051905Y0151284D01*
X0051882Y0151271D01*
X0051861Y0151256D01*
X0051843Y0151238D01*
X0051828Y0151217D01*
X0051815Y0151194D01*
X0051806Y0151170D01*
X0051801Y0151145D01*
X0051799Y0151119D01*
X0045611Y0151679D02*
X0038000Y0151679D01*
X0038000Y0152800D02*
X0045611Y0152800D01*
X0045611Y0147272D01*
X0046030Y0146261D01*
X0046804Y0145488D01*
X0047814Y0145069D01*
X0048161Y0145069D01*
X0048161Y0143831D01*
X0048051Y0143720D01*
X0047632Y0142709D01*
X0047632Y0136891D01*
X0048051Y0135880D01*
X0048824Y0135106D01*
X0049355Y0134887D01*
X0048025Y0133557D01*
X0047900Y0133254D01*
X0047775Y0133557D01*
X0046157Y0135175D01*
X0044044Y0136050D01*
X0041756Y0136050D01*
X0039643Y0135175D01*
X0038025Y0133557D01*
X0038000Y0133496D01*
X0038000Y0152800D01*
X0038000Y0150181D02*
X0045611Y0150181D01*
X0045611Y0148682D02*
X0038000Y0148682D01*
X0038000Y0147184D02*
X0045648Y0147184D01*
X0046606Y0145685D02*
X0038000Y0145685D01*
X0038000Y0144187D02*
X0048161Y0144187D01*
X0047632Y0142688D02*
X0038000Y0142688D01*
X0038000Y0141190D02*
X0047632Y0141190D01*
X0047632Y0139691D02*
X0038000Y0139691D01*
X0038000Y0138193D02*
X0047632Y0138193D01*
X0047713Y0136694D02*
X0038000Y0136694D01*
X0038000Y0135196D02*
X0039694Y0135196D01*
X0038166Y0133697D02*
X0038000Y0133697D01*
X0046106Y0135196D02*
X0048735Y0135196D01*
X0048166Y0133697D02*
X0047634Y0133697D01*
X0047900Y0121346D02*
X0048025Y0121043D01*
X0049400Y0119668D01*
X0049400Y0111187D01*
X0050329Y0108945D01*
X0050329Y0108945D01*
X0052045Y0107229D01*
X0054287Y0106300D01*
X0058845Y0106300D01*
X0058948Y0106050D01*
X0057453Y0106050D01*
X0057000Y0105862D01*
X0056547Y0106050D01*
X0052453Y0106050D01*
X0052000Y0105862D01*
X0051547Y0106050D01*
X0047453Y0106050D01*
X0047000Y0105862D01*
X0046547Y0106050D01*
X0042453Y0106050D01*
X0042000Y0105862D01*
X0041547Y0106050D01*
X0038000Y0106050D01*
X0038000Y0121104D01*
X0038025Y0121043D01*
X0039643Y0119425D01*
X0041756Y0118550D01*
X0044044Y0118550D01*
X0046157Y0119425D01*
X0047775Y0121043D01*
X0047900Y0121346D01*
X0046942Y0120211D02*
X0048858Y0120211D01*
X0049400Y0118712D02*
X0044435Y0118712D01*
X0041365Y0118712D02*
X0038000Y0118712D01*
X0038000Y0117214D02*
X0049400Y0117214D01*
X0049400Y0115715D02*
X0038000Y0115715D01*
X0038000Y0114217D02*
X0049400Y0114217D01*
X0049400Y0112718D02*
X0038000Y0112718D01*
X0038000Y0111220D02*
X0049400Y0111220D01*
X0050007Y0109721D02*
X0038000Y0109721D01*
X0038000Y0108223D02*
X0051051Y0108223D01*
X0052045Y0107229D02*
X0052045Y0107229D01*
X0053263Y0106724D02*
X0038000Y0106724D01*
X0056400Y0114217D02*
X0059224Y0114217D01*
X0064500Y0109454D02*
X0064500Y0100800D01*
X0064500Y0092800D01*
X0064498Y0092702D01*
X0064492Y0092604D01*
X0064483Y0092506D01*
X0064469Y0092409D01*
X0064452Y0092312D01*
X0064431Y0092216D01*
X0064406Y0092121D01*
X0064378Y0092027D01*
X0064345Y0091935D01*
X0064310Y0091843D01*
X0064270Y0091753D01*
X0064228Y0091665D01*
X0064181Y0091578D01*
X0064132Y0091494D01*
X0064079Y0091411D01*
X0064023Y0091331D01*
X0063963Y0091252D01*
X0063901Y0091176D01*
X0063836Y0091103D01*
X0063768Y0091032D01*
X0063697Y0090964D01*
X0063624Y0090899D01*
X0063548Y0090837D01*
X0063469Y0090777D01*
X0063389Y0090721D01*
X0063306Y0090668D01*
X0063222Y0090619D01*
X0063135Y0090572D01*
X0063047Y0090530D01*
X0062957Y0090490D01*
X0062865Y0090455D01*
X0062773Y0090422D01*
X0062679Y0090394D01*
X0062584Y0090369D01*
X0062488Y0090348D01*
X0062391Y0090331D01*
X0062294Y0090317D01*
X0062196Y0090308D01*
X0062098Y0090302D01*
X0062000Y0090300D01*
X0057000Y0090300D01*
X0056902Y0090298D01*
X0056804Y0090292D01*
X0056706Y0090283D01*
X0056609Y0090269D01*
X0056512Y0090252D01*
X0056416Y0090231D01*
X0056321Y0090206D01*
X0056227Y0090178D01*
X0056135Y0090145D01*
X0056043Y0090110D01*
X0055953Y0090070D01*
X0055865Y0090028D01*
X0055778Y0089981D01*
X0055694Y0089932D01*
X0055611Y0089879D01*
X0055531Y0089823D01*
X0055452Y0089763D01*
X0055376Y0089701D01*
X0055303Y0089636D01*
X0055232Y0089568D01*
X0055164Y0089497D01*
X0055099Y0089424D01*
X0055037Y0089348D01*
X0054977Y0089269D01*
X0054921Y0089189D01*
X0054868Y0089106D01*
X0054819Y0089022D01*
X0054772Y0088935D01*
X0054730Y0088847D01*
X0054690Y0088757D01*
X0054655Y0088665D01*
X0054622Y0088573D01*
X0054594Y0088479D01*
X0054569Y0088384D01*
X0054548Y0088288D01*
X0054531Y0088191D01*
X0054517Y0088094D01*
X0054508Y0087996D01*
X0054502Y0087898D01*
X0054500Y0087800D01*
X0054500Y0060300D01*
X0058000Y0066264D02*
X0099661Y0066264D01*
X0096587Y0067763D02*
X0058000Y0067763D01*
X0058000Y0069261D02*
X0096000Y0069261D01*
X0096000Y0070760D02*
X0058000Y0070760D01*
X0058000Y0072258D02*
X0096000Y0072258D01*
X0096000Y0073757D02*
X0058000Y0073757D01*
X0058000Y0075255D02*
X0096000Y0075255D01*
X0096000Y0076754D02*
X0058000Y0076754D01*
X0058000Y0078252D02*
X0096000Y0078252D01*
X0096000Y0079751D02*
X0058000Y0079751D01*
X0058000Y0081249D02*
X0096000Y0081249D01*
X0096000Y0082748D02*
X0058000Y0082748D01*
X0058000Y0084246D02*
X0096000Y0084246D01*
X0096000Y0085745D02*
X0058000Y0085745D01*
X0064264Y0087243D02*
X0096000Y0087243D01*
X0096000Y0088742D02*
X0066427Y0088742D01*
X0067087Y0089401D02*
X0067087Y0089401D01*
X0067434Y0090240D02*
X0096000Y0090240D01*
X0093500Y0094300D02*
X0068000Y0094300D01*
X0061000Y0094736D02*
X0035549Y0094736D01*
X0037048Y0093237D02*
X0054449Y0093237D01*
X0053601Y0092887D02*
X0053601Y0092887D01*
X0052454Y0091739D02*
X0037691Y0091739D01*
X0038000Y0090240D02*
X0051517Y0090240D01*
X0051000Y0088742D02*
X0038000Y0088742D01*
X0038000Y0087243D02*
X0051000Y0087243D01*
X0051000Y0085745D02*
X0038000Y0085745D01*
X0038000Y0084246D02*
X0051000Y0084246D01*
X0051000Y0082748D02*
X0038000Y0082748D01*
X0038000Y0081249D02*
X0051000Y0081249D01*
X0051000Y0079751D02*
X0038000Y0079751D01*
X0038000Y0078252D02*
X0051000Y0078252D01*
X0051000Y0076754D02*
X0038000Y0076754D01*
X0038000Y0075255D02*
X0051000Y0075255D01*
X0051000Y0073757D02*
X0038000Y0073757D01*
X0038000Y0072258D02*
X0051000Y0072258D01*
X0051000Y0070760D02*
X0038000Y0070760D01*
X0038000Y0069261D02*
X0051000Y0069261D01*
X0051000Y0067763D02*
X0038000Y0067763D01*
X0038000Y0066264D02*
X0051000Y0066264D01*
X0034500Y0060300D02*
X0034500Y0089800D01*
X0034498Y0089898D01*
X0034492Y0089996D01*
X0034483Y0090094D01*
X0034469Y0090191D01*
X0034452Y0090288D01*
X0034431Y0090384D01*
X0034406Y0090479D01*
X0034378Y0090573D01*
X0034345Y0090665D01*
X0034310Y0090757D01*
X0034270Y0090847D01*
X0034228Y0090935D01*
X0034181Y0091022D01*
X0034132Y0091106D01*
X0034079Y0091189D01*
X0034023Y0091269D01*
X0033963Y0091348D01*
X0033901Y0091424D01*
X0033836Y0091497D01*
X0033768Y0091568D01*
X0033697Y0091636D01*
X0033624Y0091701D01*
X0033548Y0091763D01*
X0033469Y0091823D01*
X0033389Y0091879D01*
X0033306Y0091932D01*
X0033222Y0091981D01*
X0033135Y0092028D01*
X0033047Y0092070D01*
X0032957Y0092110D01*
X0032865Y0092145D01*
X0032773Y0092178D01*
X0032679Y0092206D01*
X0032584Y0092231D01*
X0032488Y0092252D01*
X0032391Y0092269D01*
X0032294Y0092283D01*
X0032196Y0092292D01*
X0032098Y0092298D01*
X0032000Y0092300D01*
X0031000Y0088742D02*
X0027546Y0088742D01*
X0029659Y0087243D02*
X0031000Y0087243D01*
X0037087Y0093199D02*
X0037087Y0093199D01*
X0065399Y0087713D02*
X0065399Y0087713D01*
X0079500Y0100800D02*
X0079500Y0107646D01*
X0079502Y0107737D01*
X0079508Y0107829D01*
X0079517Y0107920D01*
X0079531Y0108010D01*
X0079548Y0108100D01*
X0079570Y0108189D01*
X0079594Y0108277D01*
X0079623Y0108364D01*
X0079655Y0108449D01*
X0079691Y0108533D01*
X0079731Y0108616D01*
X0079774Y0108696D01*
X0079820Y0108775D01*
X0079869Y0108852D01*
X0079922Y0108927D01*
X0079978Y0108999D01*
X0080037Y0109069D01*
X0080099Y0109136D01*
X0080164Y0109201D01*
X0080231Y0109263D01*
X0080301Y0109322D01*
X0080373Y0109378D01*
X0080448Y0109431D01*
X0080525Y0109480D01*
X0080604Y0109526D01*
X0080684Y0109569D01*
X0080767Y0109609D01*
X0080851Y0109645D01*
X0080936Y0109677D01*
X0081023Y0109706D01*
X0081111Y0109730D01*
X0081200Y0109752D01*
X0081290Y0109769D01*
X0081380Y0109783D01*
X0081471Y0109792D01*
X0081563Y0109798D01*
X0081654Y0109800D01*
X0094500Y0100800D02*
X0094500Y0095300D01*
X0094498Y0095240D01*
X0094493Y0095179D01*
X0094484Y0095120D01*
X0094471Y0095061D01*
X0094455Y0095002D01*
X0094435Y0094945D01*
X0094412Y0094890D01*
X0094385Y0094835D01*
X0094356Y0094783D01*
X0094323Y0094732D01*
X0094287Y0094683D01*
X0094249Y0094637D01*
X0094207Y0094593D01*
X0094163Y0094551D01*
X0094117Y0094513D01*
X0094068Y0094477D01*
X0094017Y0094444D01*
X0093965Y0094415D01*
X0093910Y0094388D01*
X0093855Y0094365D01*
X0093798Y0094345D01*
X0093739Y0094329D01*
X0093680Y0094316D01*
X0093621Y0094307D01*
X0093560Y0094302D01*
X0093500Y0094300D01*
X0103000Y0090240D02*
X0127000Y0090240D01*
X0127000Y0088742D02*
X0118546Y0088742D01*
X0120659Y0087243D02*
X0127000Y0087243D01*
X0127000Y0085745D02*
X0122092Y0085745D01*
X0122957Y0084246D02*
X0127000Y0084246D01*
X0127000Y0082748D02*
X0123605Y0082748D01*
X0124007Y0081249D02*
X0127000Y0081249D01*
X0127000Y0079751D02*
X0124150Y0079751D01*
X0124150Y0078252D02*
X0127000Y0078252D01*
X0127000Y0076754D02*
X0123847Y0076754D01*
X0123445Y0075255D02*
X0127000Y0075255D01*
X0127000Y0073757D02*
X0122613Y0073757D01*
X0121561Y0072258D02*
X0127000Y0072258D01*
X0127000Y0070760D02*
X0120063Y0070760D01*
X0117470Y0069261D02*
X0127000Y0069261D01*
X0127000Y0067763D02*
X0106805Y0067763D01*
X0107000Y0066264D02*
X0127000Y0066264D01*
X0127000Y0064766D02*
X0107000Y0064766D01*
X0107000Y0063267D02*
X0111279Y0063267D01*
X0108378Y0061769D02*
X0107000Y0061769D01*
X0103500Y0065800D02*
X0103500Y0044800D01*
X0103498Y0044702D01*
X0103492Y0044604D01*
X0103483Y0044506D01*
X0103469Y0044409D01*
X0103452Y0044312D01*
X0103431Y0044216D01*
X0103406Y0044121D01*
X0103378Y0044027D01*
X0103345Y0043935D01*
X0103310Y0043843D01*
X0103270Y0043753D01*
X0103228Y0043665D01*
X0103181Y0043578D01*
X0103132Y0043494D01*
X0103079Y0043411D01*
X0103023Y0043331D01*
X0102963Y0043252D01*
X0102901Y0043176D01*
X0102836Y0043103D01*
X0102768Y0043032D01*
X0102697Y0042964D01*
X0102624Y0042899D01*
X0102548Y0042837D01*
X0102469Y0042777D01*
X0102389Y0042721D01*
X0102306Y0042668D01*
X0102222Y0042619D01*
X0102135Y0042572D01*
X0102047Y0042530D01*
X0101957Y0042490D01*
X0101865Y0042455D01*
X0101773Y0042422D01*
X0101679Y0042394D01*
X0101584Y0042369D01*
X0101488Y0042348D01*
X0101391Y0042331D01*
X0101294Y0042317D01*
X0101196Y0042308D01*
X0101098Y0042302D01*
X0101000Y0042300D01*
X0089000Y0042300D01*
X0093614Y0037793D02*
X0127000Y0037793D01*
X0127000Y0039291D02*
X0103379Y0039291D01*
X0104399Y0039713D02*
X0104399Y0039713D01*
X0105475Y0040790D02*
X0127000Y0040790D01*
X0127000Y0042288D02*
X0106454Y0042288D01*
X0106087Y0041401D02*
X0106087Y0041401D01*
X0107000Y0043787D02*
X0127000Y0043787D01*
X0127000Y0045285D02*
X0107000Y0045285D01*
X0107000Y0046784D02*
X0110855Y0046784D01*
X0108202Y0048282D02*
X0107000Y0048282D01*
X0100000Y0046216D02*
X0100000Y0045800D01*
X0094532Y0045800D01*
X0098995Y0045800D01*
X0100000Y0046216D01*
X0094532Y0045800D02*
X0094532Y0045800D01*
X0085424Y0036800D02*
X0082576Y0036800D01*
X0082654Y0036832D01*
X0084000Y0038178D01*
X0085346Y0036832D01*
X0085424Y0036800D01*
X0084386Y0037793D02*
X0083614Y0037793D01*
X0075424Y0036800D02*
X0072576Y0036800D01*
X0072654Y0036832D01*
X0074000Y0038178D01*
X0075346Y0036832D01*
X0075424Y0036800D01*
X0074386Y0037793D02*
X0073614Y0037793D01*
X0065424Y0036800D02*
X0062576Y0036800D01*
X0062654Y0036832D01*
X0064000Y0038178D01*
X0065346Y0036832D01*
X0065424Y0036800D01*
X0064386Y0037793D02*
X0063614Y0037793D01*
X0054000Y0046422D02*
X0052654Y0047768D01*
X0052500Y0047832D01*
X0052500Y0048300D01*
X0055500Y0048300D01*
X0055500Y0047832D01*
X0055346Y0047768D01*
X0054000Y0046422D01*
X0053638Y0046784D02*
X0054362Y0046784D01*
X0055500Y0048282D02*
X0052500Y0048282D01*
X0045500Y0048282D02*
X0042500Y0048282D01*
X0042500Y0047832D02*
X0042500Y0050800D01*
X0045500Y0050800D01*
X0045500Y0050300D01*
X0045500Y0047832D01*
X0045346Y0047768D01*
X0044000Y0046422D01*
X0042654Y0047768D01*
X0042500Y0047832D01*
X0043638Y0046784D02*
X0044362Y0046784D01*
X0045500Y0049781D02*
X0042500Y0049781D01*
X0035500Y0049781D02*
X0028270Y0049781D01*
X0028890Y0051279D02*
X0035500Y0051279D01*
X0035500Y0052778D02*
X0029511Y0052778D01*
X0029530Y0054276D02*
X0035865Y0054276D01*
X0031136Y0055775D02*
X0029530Y0055775D01*
X0029112Y0057273D02*
X0030250Y0057273D01*
X0030250Y0058772D02*
X0028492Y0058772D01*
X0027389Y0060270D02*
X0030250Y0060270D01*
X0030250Y0061769D02*
X0025890Y0061769D01*
X0026853Y0048282D02*
X0035500Y0048282D01*
X0044000Y0038178D02*
X0045346Y0036832D01*
X0045424Y0036800D01*
X0042576Y0036800D01*
X0042654Y0036832D01*
X0044000Y0038178D01*
X0043614Y0037793D02*
X0044386Y0037793D01*
X0103507Y0072258D02*
X0105239Y0072258D01*
X0103748Y0072158D02*
X0103748Y0072158D01*
X0104187Y0073757D02*
X0103000Y0073757D01*
X0103000Y0075255D02*
X0103355Y0075255D01*
X0105147Y0070760D02*
X0106737Y0070760D01*
X0106184Y0069261D02*
X0109330Y0069261D01*
X0116296Y0063267D02*
X0127000Y0063267D01*
X0127000Y0061769D02*
X0119197Y0061769D01*
X0120696Y0060270D02*
X0127000Y0060270D01*
X0127000Y0058772D02*
X0121568Y0058772D01*
X0122189Y0057273D02*
X0127000Y0057273D01*
X0127000Y0055775D02*
X0122443Y0055775D01*
X0122443Y0054276D02*
X0127000Y0054276D01*
X0127000Y0052778D02*
X0122261Y0052778D01*
X0121641Y0051279D02*
X0127000Y0051279D01*
X0127000Y0049781D02*
X0120871Y0049781D01*
X0119372Y0048282D02*
X0127000Y0048282D01*
X0127000Y0046784D02*
X0116719Y0046784D01*
X0103195Y0082748D02*
X0103000Y0082748D01*
X0103000Y0084246D02*
X0103843Y0084246D01*
X0103000Y0085745D02*
X0104708Y0085745D01*
X0106141Y0087243D02*
X0103000Y0087243D01*
X0103000Y0088742D02*
X0108254Y0088742D01*
X0107500Y0135800D02*
X0107500Y0138800D01*
X0107498Y0138907D01*
X0107492Y0139014D01*
X0107483Y0139121D01*
X0107469Y0139227D01*
X0107452Y0139333D01*
X0107431Y0139438D01*
X0107407Y0139542D01*
X0107378Y0139645D01*
X0107346Y0139747D01*
X0107311Y0139848D01*
X0107272Y0139948D01*
X0107229Y0140046D01*
X0107183Y0140143D01*
X0107133Y0140238D01*
X0107080Y0140331D01*
X0107024Y0140422D01*
X0106964Y0140511D01*
X0106902Y0140598D01*
X0106836Y0140682D01*
X0106767Y0140765D01*
X0106696Y0140844D01*
X0106621Y0140921D01*
X0106544Y0140996D01*
X0106465Y0141067D01*
X0106382Y0141136D01*
X0106298Y0141202D01*
X0106211Y0141264D01*
X0106122Y0141324D01*
X0106031Y0141380D01*
X0105938Y0141433D01*
X0105843Y0141483D01*
X0105746Y0141529D01*
X0105648Y0141572D01*
X0105548Y0141611D01*
X0105447Y0141646D01*
X0105345Y0141678D01*
X0105242Y0141707D01*
X0105138Y0141731D01*
X0105033Y0141752D01*
X0104927Y0141769D01*
X0104821Y0141783D01*
X0104714Y0141792D01*
X0104607Y0141798D01*
X0104500Y0141800D01*
X0101500Y0141800D01*
X0101413Y0141802D01*
X0101326Y0141808D01*
X0101239Y0141817D01*
X0101153Y0141830D01*
X0101067Y0141847D01*
X0100982Y0141868D01*
X0100899Y0141893D01*
X0100816Y0141921D01*
X0100735Y0141952D01*
X0100655Y0141987D01*
X0100577Y0142026D01*
X0100500Y0142068D01*
X0100425Y0142113D01*
X0100353Y0142162D01*
X0100282Y0142213D01*
X0100214Y0142268D01*
X0100149Y0142325D01*
X0100086Y0142386D01*
X0100025Y0142449D01*
X0099968Y0142514D01*
X0099913Y0142582D01*
X0099862Y0142653D01*
X0099813Y0142725D01*
X0099768Y0142800D01*
X0099726Y0142877D01*
X0099687Y0142955D01*
X0099652Y0143035D01*
X0099621Y0143116D01*
X0099593Y0143199D01*
X0099568Y0143282D01*
X0099547Y0143367D01*
X0099530Y0143453D01*
X0099517Y0143539D01*
X0099508Y0143626D01*
X0099502Y0143713D01*
X0099500Y0143800D01*
X0099500Y0160434D01*
X0099134Y0160800D01*
X0100000Y0160800D01*
X0104246Y0160670D02*
X0127000Y0160670D01*
X0127000Y0159172D02*
X0104246Y0159172D01*
X0104156Y0157673D02*
X0111474Y0157673D01*
X0108689Y0156175D02*
X0103122Y0156175D01*
X0103000Y0154676D02*
X0107191Y0154676D01*
X0106367Y0153178D02*
X0103000Y0153178D01*
X0103000Y0151679D02*
X0105746Y0151679D01*
X0105526Y0150181D02*
X0103000Y0150181D01*
X0103000Y0148682D02*
X0105526Y0148682D01*
X0105741Y0147184D02*
X0103000Y0147184D01*
X0103000Y0145685D02*
X0106362Y0145685D01*
X0110546Y0141190D02*
X0111447Y0141190D01*
X0116915Y0141190D02*
X0127000Y0141190D01*
X0127000Y0142688D02*
X0119684Y0142688D01*
X0121183Y0144187D02*
X0127000Y0144187D01*
X0127000Y0145685D02*
X0122000Y0145685D01*
X0122621Y0147184D02*
X0127000Y0147184D01*
X0127000Y0148682D02*
X0122837Y0148682D01*
X0122837Y0150181D02*
X0127000Y0150181D01*
X0127000Y0151679D02*
X0122616Y0151679D01*
X0121996Y0153178D02*
X0127000Y0153178D01*
X0127000Y0154676D02*
X0121171Y0154676D01*
X0119673Y0156175D02*
X0127000Y0156175D01*
X0127000Y0157673D02*
X0116888Y0157673D01*
X0127000Y0162169D02*
X0104246Y0162169D01*
X0104246Y0163668D02*
X0127000Y0163668D01*
X0081701Y0154599D02*
X0081701Y0151394D01*
X0081701Y0154599D02*
X0081699Y0154726D01*
X0081693Y0154853D01*
X0081684Y0154979D01*
X0081670Y0155105D01*
X0081653Y0155231D01*
X0081632Y0155356D01*
X0081607Y0155481D01*
X0081579Y0155604D01*
X0081547Y0155727D01*
X0081511Y0155849D01*
X0081471Y0155969D01*
X0081428Y0156089D01*
X0081381Y0156207D01*
X0081331Y0156323D01*
X0081277Y0156438D01*
X0081220Y0156551D01*
X0081159Y0156663D01*
X0081095Y0156772D01*
X0081028Y0156880D01*
X0080957Y0156985D01*
X0080884Y0157089D01*
X0080807Y0157190D01*
X0080727Y0157289D01*
X0080644Y0157385D01*
X0080559Y0157478D01*
X0080471Y0157570D01*
X0080379Y0157658D01*
X0080286Y0157743D01*
X0080190Y0157826D01*
X0080091Y0157906D01*
X0079990Y0157983D01*
X0079886Y0158056D01*
X0079781Y0158127D01*
X0079673Y0158194D01*
X0079564Y0158258D01*
X0079452Y0158319D01*
X0079339Y0158376D01*
X0079224Y0158430D01*
X0079108Y0158480D01*
X0078990Y0158527D01*
X0078870Y0158570D01*
X0078750Y0158610D01*
X0078628Y0158646D01*
X0078505Y0158678D01*
X0078382Y0158706D01*
X0078257Y0158731D01*
X0078132Y0158752D01*
X0078006Y0158769D01*
X0077880Y0158783D01*
X0077754Y0158792D01*
X0077627Y0158798D01*
X0077500Y0158800D01*
X0033500Y0158800D01*
X0033367Y0158798D01*
X0033233Y0158792D01*
X0033100Y0158782D01*
X0032968Y0158768D01*
X0032836Y0158751D01*
X0032704Y0158729D01*
X0032573Y0158704D01*
X0032443Y0158674D01*
X0032314Y0158641D01*
X0032186Y0158604D01*
X0032059Y0158563D01*
X0031933Y0158518D01*
X0031809Y0158470D01*
X0031686Y0158418D01*
X0031565Y0158363D01*
X0031445Y0158303D01*
X0031327Y0158241D01*
X0031212Y0158175D01*
X0031098Y0158105D01*
X0030986Y0158032D01*
X0030877Y0157956D01*
X0030769Y0157877D01*
X0030665Y0157794D01*
X0030562Y0157709D01*
X0030463Y0157620D01*
X0030366Y0157529D01*
X0030271Y0157434D01*
X0030180Y0157337D01*
X0030091Y0157238D01*
X0030006Y0157135D01*
X0029923Y0157031D01*
X0029844Y0156923D01*
X0029768Y0156814D01*
X0029695Y0156702D01*
X0029625Y0156588D01*
X0029559Y0156473D01*
X0029497Y0156355D01*
X0029437Y0156235D01*
X0029382Y0156114D01*
X0029330Y0155991D01*
X0029282Y0155867D01*
X0029237Y0155741D01*
X0029196Y0155614D01*
X0029159Y0155486D01*
X0029126Y0155357D01*
X0029096Y0155227D01*
X0029071Y0155096D01*
X0029049Y0154964D01*
X0029032Y0154832D01*
X0029018Y0154700D01*
X0029008Y0154567D01*
X0029002Y0154433D01*
X0029000Y0154300D01*
X0025500Y0141190D02*
X0023608Y0141190D01*
X0038000Y0120211D02*
X0038858Y0120211D01*
X0076312Y0155300D02*
X0077050Y0155300D01*
X0076681Y0154931D01*
X0076312Y0155300D01*
D21*
X0088000Y0115800D03*
X0068000Y0094300D03*
M02*
