G75*
%MOIN*%
%OFA0B0*%
%FSLAX25Y25*%
%IPPOS*%
%LPD*%
%AMOC8*
5,1,8,0,0,1.08239X$1,22.5*
%
%ADD10C,0.00500*%
%ADD11C,0.00800*%
%ADD12C,0.00600*%
D10*
X0034000Y0030300D02*
X0094000Y0030300D01*
X0094000Y0052300D01*
X0089000Y0052300D01*
X0089000Y0047300D01*
X0039000Y0047300D01*
X0039000Y0052300D01*
X0034000Y0052300D01*
X0034000Y0030300D01*
X0058278Y0029050D02*
X0058806Y0029050D01*
X0058806Y0027150D01*
X0058806Y0027994D02*
X0058278Y0027994D01*
X0058233Y0027996D01*
X0058189Y0028002D01*
X0058145Y0028011D01*
X0058102Y0028024D01*
X0058061Y0028041D01*
X0058020Y0028061D01*
X0057982Y0028085D01*
X0057946Y0028111D01*
X0057913Y0028141D01*
X0057882Y0028173D01*
X0057853Y0028208D01*
X0057828Y0028245D01*
X0057807Y0028284D01*
X0057788Y0028325D01*
X0057773Y0028367D01*
X0057762Y0028411D01*
X0057754Y0028455D01*
X0057750Y0028500D01*
X0057750Y0028544D01*
X0057754Y0028589D01*
X0057762Y0028633D01*
X0057773Y0028677D01*
X0057788Y0028719D01*
X0057807Y0028760D01*
X0057828Y0028799D01*
X0057853Y0028836D01*
X0057882Y0028871D01*
X0057913Y0028903D01*
X0057946Y0028933D01*
X0057982Y0028959D01*
X0058020Y0028983D01*
X0058061Y0029003D01*
X0058102Y0029020D01*
X0058145Y0029033D01*
X0058189Y0029042D01*
X0058233Y0029048D01*
X0058278Y0029050D01*
X0060179Y0027942D02*
X0060759Y0028258D01*
X0060548Y0029050D02*
X0060497Y0029048D01*
X0060446Y0029043D01*
X0060396Y0029035D01*
X0060346Y0029024D01*
X0060298Y0029009D01*
X0060250Y0028992D01*
X0060203Y0028971D01*
X0060158Y0028947D01*
X0060115Y0028921D01*
X0060073Y0028892D01*
X0060760Y0028258D02*
X0060794Y0028281D01*
X0060825Y0028306D01*
X0060854Y0028334D01*
X0060881Y0028365D01*
X0060904Y0028398D01*
X0060924Y0028433D01*
X0060941Y0028470D01*
X0060954Y0028508D01*
X0060963Y0028547D01*
X0060969Y0028588D01*
X0060971Y0028628D01*
X0060970Y0028628D02*
X0060968Y0028667D01*
X0060963Y0028706D01*
X0060954Y0028743D01*
X0060942Y0028780D01*
X0060926Y0028816D01*
X0060907Y0028850D01*
X0060885Y0028882D01*
X0060860Y0028912D01*
X0060832Y0028940D01*
X0060802Y0028965D01*
X0060770Y0028987D01*
X0060736Y0029006D01*
X0060700Y0029022D01*
X0060663Y0029034D01*
X0060626Y0029043D01*
X0060587Y0029048D01*
X0060548Y0029050D01*
X0061023Y0027414D02*
X0060981Y0027374D01*
X0060935Y0027336D01*
X0060888Y0027302D01*
X0060838Y0027271D01*
X0060786Y0027243D01*
X0060733Y0027219D01*
X0060678Y0027198D01*
X0060622Y0027181D01*
X0060565Y0027167D01*
X0060507Y0027158D01*
X0060449Y0027152D01*
X0060390Y0027150D01*
X0060351Y0027152D01*
X0060312Y0027157D01*
X0060275Y0027166D01*
X0060238Y0027178D01*
X0060202Y0027194D01*
X0060168Y0027213D01*
X0060136Y0027235D01*
X0060106Y0027260D01*
X0060078Y0027288D01*
X0060053Y0027318D01*
X0060031Y0027350D01*
X0060012Y0027384D01*
X0059996Y0027420D01*
X0059984Y0027457D01*
X0059975Y0027494D01*
X0059970Y0027533D01*
X0059968Y0027572D01*
X0059967Y0027572D02*
X0059969Y0027612D01*
X0059975Y0027653D01*
X0059984Y0027692D01*
X0059997Y0027730D01*
X0060014Y0027767D01*
X0060034Y0027802D01*
X0060057Y0027835D01*
X0060084Y0027866D01*
X0060113Y0027894D01*
X0060144Y0027919D01*
X0060178Y0027942D01*
X0061918Y0027150D02*
X0062340Y0027150D01*
X0062379Y0027152D01*
X0062418Y0027157D01*
X0062455Y0027166D01*
X0062492Y0027178D01*
X0062528Y0027194D01*
X0062562Y0027213D01*
X0062594Y0027235D01*
X0062624Y0027260D01*
X0062652Y0027288D01*
X0062677Y0027318D01*
X0062699Y0027350D01*
X0062718Y0027384D01*
X0062734Y0027420D01*
X0062746Y0027457D01*
X0062755Y0027494D01*
X0062760Y0027533D01*
X0062762Y0027572D01*
X0062762Y0028628D01*
X0062760Y0028667D01*
X0062755Y0028706D01*
X0062746Y0028743D01*
X0062734Y0028780D01*
X0062718Y0028816D01*
X0062699Y0028850D01*
X0062677Y0028882D01*
X0062652Y0028912D01*
X0062624Y0028940D01*
X0062594Y0028965D01*
X0062562Y0028987D01*
X0062528Y0029006D01*
X0062492Y0029022D01*
X0062455Y0029034D01*
X0062418Y0029043D01*
X0062379Y0029048D01*
X0062340Y0029050D01*
X0061918Y0029050D01*
X0063740Y0029050D02*
X0064163Y0029050D01*
X0063951Y0029050D02*
X0063951Y0027150D01*
X0063740Y0027150D02*
X0064163Y0027150D01*
X0089000Y0052300D02*
X0039000Y0052300D01*
D11*
X0036500Y0037300D02*
X0041500Y0037300D01*
D12*
X0049900Y0049300D02*
X0016400Y0068300D01*
X0014400Y0079300D02*
X0014402Y0079496D01*
X0014410Y0079693D01*
X0014422Y0079889D01*
X0014439Y0080084D01*
X0014460Y0080279D01*
X0014487Y0080474D01*
X0014518Y0080668D01*
X0014554Y0080861D01*
X0014594Y0081053D01*
X0014640Y0081244D01*
X0014690Y0081434D01*
X0014744Y0081622D01*
X0014804Y0081809D01*
X0014868Y0081995D01*
X0014936Y0082179D01*
X0015009Y0082361D01*
X0015086Y0082542D01*
X0015168Y0082720D01*
X0015254Y0082897D01*
X0015345Y0083071D01*
X0015439Y0083243D01*
X0015538Y0083413D01*
X0015641Y0083580D01*
X0015748Y0083745D01*
X0015859Y0083906D01*
X0015974Y0084066D01*
X0016093Y0084222D01*
X0016216Y0084375D01*
X0016342Y0084525D01*
X0016472Y0084672D01*
X0016606Y0084816D01*
X0016743Y0084957D01*
X0016884Y0085094D01*
X0017028Y0085228D01*
X0017175Y0085358D01*
X0017325Y0085484D01*
X0017478Y0085607D01*
X0017634Y0085726D01*
X0017794Y0085841D01*
X0017955Y0085952D01*
X0018120Y0086059D01*
X0018287Y0086162D01*
X0018457Y0086261D01*
X0018629Y0086355D01*
X0018803Y0086446D01*
X0018980Y0086532D01*
X0019158Y0086614D01*
X0019339Y0086691D01*
X0019521Y0086764D01*
X0019705Y0086832D01*
X0019891Y0086896D01*
X0020078Y0086956D01*
X0020266Y0087010D01*
X0020456Y0087060D01*
X0020647Y0087106D01*
X0020839Y0087146D01*
X0021032Y0087182D01*
X0021226Y0087213D01*
X0021421Y0087240D01*
X0021616Y0087261D01*
X0021811Y0087278D01*
X0022007Y0087290D01*
X0022204Y0087298D01*
X0022400Y0087300D01*
X0022596Y0087298D01*
X0022793Y0087290D01*
X0022989Y0087278D01*
X0023184Y0087261D01*
X0023379Y0087240D01*
X0023574Y0087213D01*
X0023768Y0087182D01*
X0023961Y0087146D01*
X0024153Y0087106D01*
X0024344Y0087060D01*
X0024534Y0087010D01*
X0024722Y0086956D01*
X0024909Y0086896D01*
X0025095Y0086832D01*
X0025279Y0086764D01*
X0025461Y0086691D01*
X0025642Y0086614D01*
X0025820Y0086532D01*
X0025997Y0086446D01*
X0026171Y0086355D01*
X0026343Y0086261D01*
X0026513Y0086162D01*
X0026680Y0086059D01*
X0026845Y0085952D01*
X0027006Y0085841D01*
X0027166Y0085726D01*
X0027322Y0085607D01*
X0027475Y0085484D01*
X0027625Y0085358D01*
X0027772Y0085228D01*
X0027916Y0085094D01*
X0028057Y0084957D01*
X0028194Y0084816D01*
X0028328Y0084672D01*
X0028458Y0084525D01*
X0028584Y0084375D01*
X0028707Y0084222D01*
X0028826Y0084066D01*
X0028941Y0083906D01*
X0029052Y0083745D01*
X0029159Y0083580D01*
X0029262Y0083413D01*
X0029361Y0083243D01*
X0029455Y0083071D01*
X0029546Y0082897D01*
X0029632Y0082720D01*
X0029714Y0082542D01*
X0029791Y0082361D01*
X0029864Y0082179D01*
X0029932Y0081995D01*
X0029996Y0081809D01*
X0030056Y0081622D01*
X0030110Y0081434D01*
X0030160Y0081244D01*
X0030206Y0081053D01*
X0030246Y0080861D01*
X0030282Y0080668D01*
X0030313Y0080474D01*
X0030340Y0080279D01*
X0030361Y0080084D01*
X0030378Y0079889D01*
X0030390Y0079693D01*
X0030398Y0079496D01*
X0030400Y0079300D01*
X0030398Y0079104D01*
X0030390Y0078907D01*
X0030378Y0078711D01*
X0030361Y0078516D01*
X0030340Y0078321D01*
X0030313Y0078126D01*
X0030282Y0077932D01*
X0030246Y0077739D01*
X0030206Y0077547D01*
X0030160Y0077356D01*
X0030110Y0077166D01*
X0030056Y0076978D01*
X0029996Y0076791D01*
X0029932Y0076605D01*
X0029864Y0076421D01*
X0029791Y0076239D01*
X0029714Y0076058D01*
X0029632Y0075880D01*
X0029546Y0075703D01*
X0029455Y0075529D01*
X0029361Y0075357D01*
X0029262Y0075187D01*
X0029159Y0075020D01*
X0029052Y0074855D01*
X0028941Y0074694D01*
X0028826Y0074534D01*
X0028707Y0074378D01*
X0028584Y0074225D01*
X0028458Y0074075D01*
X0028328Y0073928D01*
X0028194Y0073784D01*
X0028057Y0073643D01*
X0027916Y0073506D01*
X0027772Y0073372D01*
X0027625Y0073242D01*
X0027475Y0073116D01*
X0027322Y0072993D01*
X0027166Y0072874D01*
X0027006Y0072759D01*
X0026845Y0072648D01*
X0026680Y0072541D01*
X0026513Y0072438D01*
X0026343Y0072339D01*
X0026171Y0072245D01*
X0025997Y0072154D01*
X0025820Y0072068D01*
X0025642Y0071986D01*
X0025461Y0071909D01*
X0025279Y0071836D01*
X0025095Y0071768D01*
X0024909Y0071704D01*
X0024722Y0071644D01*
X0024534Y0071590D01*
X0024344Y0071540D01*
X0024153Y0071494D01*
X0023961Y0071454D01*
X0023768Y0071418D01*
X0023574Y0071387D01*
X0023379Y0071360D01*
X0023184Y0071339D01*
X0022989Y0071322D01*
X0022793Y0071310D01*
X0022596Y0071302D01*
X0022400Y0071300D01*
X0022204Y0071302D01*
X0022007Y0071310D01*
X0021811Y0071322D01*
X0021616Y0071339D01*
X0021421Y0071360D01*
X0021226Y0071387D01*
X0021032Y0071418D01*
X0020839Y0071454D01*
X0020647Y0071494D01*
X0020456Y0071540D01*
X0020266Y0071590D01*
X0020078Y0071644D01*
X0019891Y0071704D01*
X0019705Y0071768D01*
X0019521Y0071836D01*
X0019339Y0071909D01*
X0019158Y0071986D01*
X0018980Y0072068D01*
X0018803Y0072154D01*
X0018629Y0072245D01*
X0018457Y0072339D01*
X0018287Y0072438D01*
X0018120Y0072541D01*
X0017955Y0072648D01*
X0017794Y0072759D01*
X0017634Y0072874D01*
X0017478Y0072993D01*
X0017325Y0073116D01*
X0017175Y0073242D01*
X0017028Y0073372D01*
X0016884Y0073506D01*
X0016743Y0073643D01*
X0016606Y0073784D01*
X0016472Y0073928D01*
X0016342Y0074075D01*
X0016216Y0074225D01*
X0016093Y0074378D01*
X0015974Y0074534D01*
X0015859Y0074694D01*
X0015748Y0074855D01*
X0015641Y0075020D01*
X0015538Y0075187D01*
X0015439Y0075357D01*
X0015345Y0075529D01*
X0015254Y0075703D01*
X0015168Y0075880D01*
X0015086Y0076058D01*
X0015009Y0076239D01*
X0014936Y0076421D01*
X0014868Y0076605D01*
X0014804Y0076791D01*
X0014744Y0076978D01*
X0014690Y0077166D01*
X0014640Y0077356D01*
X0014594Y0077547D01*
X0014554Y0077739D01*
X0014518Y0077932D01*
X0014487Y0078126D01*
X0014460Y0078321D01*
X0014439Y0078516D01*
X0014422Y0078711D01*
X0014410Y0078907D01*
X0014402Y0079104D01*
X0014400Y0079300D01*
X0016400Y0090300D02*
X0016134Y0090151D01*
X0015872Y0089995D01*
X0015613Y0089833D01*
X0015359Y0089664D01*
X0015108Y0089490D01*
X0014862Y0089309D01*
X0014621Y0089123D01*
X0014384Y0088930D01*
X0014152Y0088732D01*
X0013925Y0088529D01*
X0013703Y0088320D01*
X0013486Y0088105D01*
X0013274Y0087886D01*
X0013067Y0087661D01*
X0012867Y0087431D01*
X0012671Y0087197D01*
X0012482Y0086957D01*
X0012299Y0086714D01*
X0012121Y0086465D01*
X0011950Y0086213D01*
X0011784Y0085957D01*
X0011625Y0085696D01*
X0011473Y0085432D01*
X0011327Y0085164D01*
X0011187Y0084893D01*
X0011055Y0084618D01*
X0010928Y0084340D01*
X0010809Y0084059D01*
X0010697Y0083776D01*
X0010591Y0083489D01*
X0010493Y0083201D01*
X0010401Y0082910D01*
X0010317Y0082616D01*
X0010240Y0082321D01*
X0010170Y0082024D01*
X0010107Y0081726D01*
X0010052Y0081426D01*
X0010004Y0081124D01*
X0009963Y0080822D01*
X0009929Y0080519D01*
X0009903Y0080215D01*
X0009885Y0079910D01*
X0009874Y0079605D01*
X0009870Y0079300D01*
X0009874Y0078995D01*
X0009885Y0078690D01*
X0009903Y0078385D01*
X0009929Y0078081D01*
X0009963Y0077778D01*
X0010004Y0077476D01*
X0010052Y0077174D01*
X0010107Y0076874D01*
X0010170Y0076576D01*
X0010240Y0076279D01*
X0010317Y0075984D01*
X0010401Y0075690D01*
X0010493Y0075399D01*
X0010591Y0075111D01*
X0010697Y0074824D01*
X0010809Y0074541D01*
X0010928Y0074260D01*
X0011055Y0073982D01*
X0011187Y0073707D01*
X0011327Y0073436D01*
X0011473Y0073168D01*
X0011625Y0072904D01*
X0011784Y0072643D01*
X0011950Y0072387D01*
X0012121Y0072135D01*
X0012299Y0071886D01*
X0012482Y0071643D01*
X0012671Y0071403D01*
X0012867Y0071169D01*
X0013067Y0070939D01*
X0013274Y0070714D01*
X0013486Y0070495D01*
X0013703Y0070280D01*
X0013925Y0070071D01*
X0014152Y0069868D01*
X0014384Y0069670D01*
X0014621Y0069477D01*
X0014862Y0069291D01*
X0015108Y0069110D01*
X0015359Y0068936D01*
X0015613Y0068767D01*
X0015872Y0068605D01*
X0016134Y0068449D01*
X0016400Y0068300D01*
X0016400Y0090300D02*
X0016668Y0090442D01*
X0016938Y0090577D01*
X0017213Y0090706D01*
X0017490Y0090828D01*
X0017770Y0090943D01*
X0018052Y0091052D01*
X0018338Y0091153D01*
X0018625Y0091248D01*
X0018915Y0091336D01*
X0019207Y0091416D01*
X0019501Y0091490D01*
X0019796Y0091556D01*
X0020093Y0091616D01*
X0020391Y0091668D01*
X0020691Y0091713D01*
X0020991Y0091751D01*
X0021292Y0091781D01*
X0021594Y0091804D01*
X0021897Y0091820D01*
X0022199Y0091828D01*
X0022502Y0091830D01*
X0022805Y0091823D01*
X0023107Y0091810D01*
X0023409Y0091789D01*
X0023711Y0091761D01*
X0024012Y0091726D01*
X0024311Y0091683D01*
X0024610Y0091634D01*
X0024907Y0091577D01*
X0025203Y0091512D01*
X0025498Y0091441D01*
X0025790Y0091363D01*
X0026081Y0091277D01*
X0026369Y0091185D01*
X0026655Y0091085D01*
X0026938Y0090979D01*
X0027219Y0090866D01*
X0027497Y0090746D01*
X0027772Y0090620D01*
X0028044Y0090487D01*
X0028313Y0090347D01*
X0028578Y0090201D01*
X0028840Y0090048D01*
X0029098Y0089890D01*
X0029352Y0089725D01*
X0029602Y0089554D01*
X0029847Y0089377D01*
X0030089Y0089194D01*
X0030325Y0089005D01*
X0030558Y0088811D01*
X0030785Y0088611D01*
X0031008Y0088406D01*
X0031225Y0088195D01*
X0031437Y0087979D01*
X0031644Y0087758D01*
X0031846Y0087532D01*
X0032042Y0087302D01*
X0032233Y0087066D01*
X0032418Y0086826D01*
X0032597Y0086582D01*
X0032770Y0086334D01*
X0032937Y0086081D01*
X0033097Y0085824D01*
X0033252Y0085564D01*
X0033400Y0085300D01*
X0016400Y0090300D02*
X0049900Y0109300D01*
X0050400Y0109800D02*
X0050400Y0127300D01*
X0055400Y0127300D01*
X0055400Y0112300D01*
X0060400Y0113800D02*
X0060400Y0127300D01*
X0065400Y0127300D01*
X0065400Y0114300D01*
X0070400Y0114300D02*
X0070400Y0127300D01*
X0075400Y0127300D01*
X0075400Y0113800D01*
X0080400Y0112300D02*
X0080400Y0127300D01*
X0085400Y0127300D01*
X0085400Y0109800D01*
X0085900Y0109300D02*
X0119400Y0090300D01*
X0105400Y0079300D02*
X0105402Y0079496D01*
X0105410Y0079693D01*
X0105422Y0079889D01*
X0105439Y0080084D01*
X0105460Y0080279D01*
X0105487Y0080474D01*
X0105518Y0080668D01*
X0105554Y0080861D01*
X0105594Y0081053D01*
X0105640Y0081244D01*
X0105690Y0081434D01*
X0105744Y0081622D01*
X0105804Y0081809D01*
X0105868Y0081995D01*
X0105936Y0082179D01*
X0106009Y0082361D01*
X0106086Y0082542D01*
X0106168Y0082720D01*
X0106254Y0082897D01*
X0106345Y0083071D01*
X0106439Y0083243D01*
X0106538Y0083413D01*
X0106641Y0083580D01*
X0106748Y0083745D01*
X0106859Y0083906D01*
X0106974Y0084066D01*
X0107093Y0084222D01*
X0107216Y0084375D01*
X0107342Y0084525D01*
X0107472Y0084672D01*
X0107606Y0084816D01*
X0107743Y0084957D01*
X0107884Y0085094D01*
X0108028Y0085228D01*
X0108175Y0085358D01*
X0108325Y0085484D01*
X0108478Y0085607D01*
X0108634Y0085726D01*
X0108794Y0085841D01*
X0108955Y0085952D01*
X0109120Y0086059D01*
X0109287Y0086162D01*
X0109457Y0086261D01*
X0109629Y0086355D01*
X0109803Y0086446D01*
X0109980Y0086532D01*
X0110158Y0086614D01*
X0110339Y0086691D01*
X0110521Y0086764D01*
X0110705Y0086832D01*
X0110891Y0086896D01*
X0111078Y0086956D01*
X0111266Y0087010D01*
X0111456Y0087060D01*
X0111647Y0087106D01*
X0111839Y0087146D01*
X0112032Y0087182D01*
X0112226Y0087213D01*
X0112421Y0087240D01*
X0112616Y0087261D01*
X0112811Y0087278D01*
X0113007Y0087290D01*
X0113204Y0087298D01*
X0113400Y0087300D01*
X0113596Y0087298D01*
X0113793Y0087290D01*
X0113989Y0087278D01*
X0114184Y0087261D01*
X0114379Y0087240D01*
X0114574Y0087213D01*
X0114768Y0087182D01*
X0114961Y0087146D01*
X0115153Y0087106D01*
X0115344Y0087060D01*
X0115534Y0087010D01*
X0115722Y0086956D01*
X0115909Y0086896D01*
X0116095Y0086832D01*
X0116279Y0086764D01*
X0116461Y0086691D01*
X0116642Y0086614D01*
X0116820Y0086532D01*
X0116997Y0086446D01*
X0117171Y0086355D01*
X0117343Y0086261D01*
X0117513Y0086162D01*
X0117680Y0086059D01*
X0117845Y0085952D01*
X0118006Y0085841D01*
X0118166Y0085726D01*
X0118322Y0085607D01*
X0118475Y0085484D01*
X0118625Y0085358D01*
X0118772Y0085228D01*
X0118916Y0085094D01*
X0119057Y0084957D01*
X0119194Y0084816D01*
X0119328Y0084672D01*
X0119458Y0084525D01*
X0119584Y0084375D01*
X0119707Y0084222D01*
X0119826Y0084066D01*
X0119941Y0083906D01*
X0120052Y0083745D01*
X0120159Y0083580D01*
X0120262Y0083413D01*
X0120361Y0083243D01*
X0120455Y0083071D01*
X0120546Y0082897D01*
X0120632Y0082720D01*
X0120714Y0082542D01*
X0120791Y0082361D01*
X0120864Y0082179D01*
X0120932Y0081995D01*
X0120996Y0081809D01*
X0121056Y0081622D01*
X0121110Y0081434D01*
X0121160Y0081244D01*
X0121206Y0081053D01*
X0121246Y0080861D01*
X0121282Y0080668D01*
X0121313Y0080474D01*
X0121340Y0080279D01*
X0121361Y0080084D01*
X0121378Y0079889D01*
X0121390Y0079693D01*
X0121398Y0079496D01*
X0121400Y0079300D01*
X0121398Y0079104D01*
X0121390Y0078907D01*
X0121378Y0078711D01*
X0121361Y0078516D01*
X0121340Y0078321D01*
X0121313Y0078126D01*
X0121282Y0077932D01*
X0121246Y0077739D01*
X0121206Y0077547D01*
X0121160Y0077356D01*
X0121110Y0077166D01*
X0121056Y0076978D01*
X0120996Y0076791D01*
X0120932Y0076605D01*
X0120864Y0076421D01*
X0120791Y0076239D01*
X0120714Y0076058D01*
X0120632Y0075880D01*
X0120546Y0075703D01*
X0120455Y0075529D01*
X0120361Y0075357D01*
X0120262Y0075187D01*
X0120159Y0075020D01*
X0120052Y0074855D01*
X0119941Y0074694D01*
X0119826Y0074534D01*
X0119707Y0074378D01*
X0119584Y0074225D01*
X0119458Y0074075D01*
X0119328Y0073928D01*
X0119194Y0073784D01*
X0119057Y0073643D01*
X0118916Y0073506D01*
X0118772Y0073372D01*
X0118625Y0073242D01*
X0118475Y0073116D01*
X0118322Y0072993D01*
X0118166Y0072874D01*
X0118006Y0072759D01*
X0117845Y0072648D01*
X0117680Y0072541D01*
X0117513Y0072438D01*
X0117343Y0072339D01*
X0117171Y0072245D01*
X0116997Y0072154D01*
X0116820Y0072068D01*
X0116642Y0071986D01*
X0116461Y0071909D01*
X0116279Y0071836D01*
X0116095Y0071768D01*
X0115909Y0071704D01*
X0115722Y0071644D01*
X0115534Y0071590D01*
X0115344Y0071540D01*
X0115153Y0071494D01*
X0114961Y0071454D01*
X0114768Y0071418D01*
X0114574Y0071387D01*
X0114379Y0071360D01*
X0114184Y0071339D01*
X0113989Y0071322D01*
X0113793Y0071310D01*
X0113596Y0071302D01*
X0113400Y0071300D01*
X0113204Y0071302D01*
X0113007Y0071310D01*
X0112811Y0071322D01*
X0112616Y0071339D01*
X0112421Y0071360D01*
X0112226Y0071387D01*
X0112032Y0071418D01*
X0111839Y0071454D01*
X0111647Y0071494D01*
X0111456Y0071540D01*
X0111266Y0071590D01*
X0111078Y0071644D01*
X0110891Y0071704D01*
X0110705Y0071768D01*
X0110521Y0071836D01*
X0110339Y0071909D01*
X0110158Y0071986D01*
X0109980Y0072068D01*
X0109803Y0072154D01*
X0109629Y0072245D01*
X0109457Y0072339D01*
X0109287Y0072438D01*
X0109120Y0072541D01*
X0108955Y0072648D01*
X0108794Y0072759D01*
X0108634Y0072874D01*
X0108478Y0072993D01*
X0108325Y0073116D01*
X0108175Y0073242D01*
X0108028Y0073372D01*
X0107884Y0073506D01*
X0107743Y0073643D01*
X0107606Y0073784D01*
X0107472Y0073928D01*
X0107342Y0074075D01*
X0107216Y0074225D01*
X0107093Y0074378D01*
X0106974Y0074534D01*
X0106859Y0074694D01*
X0106748Y0074855D01*
X0106641Y0075020D01*
X0106538Y0075187D01*
X0106439Y0075357D01*
X0106345Y0075529D01*
X0106254Y0075703D01*
X0106168Y0075880D01*
X0106086Y0076058D01*
X0106009Y0076239D01*
X0105936Y0076421D01*
X0105868Y0076605D01*
X0105804Y0076791D01*
X0105744Y0076978D01*
X0105690Y0077166D01*
X0105640Y0077356D01*
X0105594Y0077547D01*
X0105554Y0077739D01*
X0105518Y0077932D01*
X0105487Y0078126D01*
X0105460Y0078321D01*
X0105439Y0078516D01*
X0105422Y0078711D01*
X0105410Y0078907D01*
X0105402Y0079104D01*
X0105400Y0079300D01*
X0102400Y0073300D02*
X0102548Y0073036D01*
X0102703Y0072776D01*
X0102863Y0072519D01*
X0103030Y0072266D01*
X0103203Y0072018D01*
X0103382Y0071774D01*
X0103567Y0071534D01*
X0103758Y0071298D01*
X0103954Y0071068D01*
X0104156Y0070842D01*
X0104363Y0070621D01*
X0104575Y0070405D01*
X0104792Y0070194D01*
X0105015Y0069989D01*
X0105242Y0069789D01*
X0105475Y0069595D01*
X0105711Y0069406D01*
X0105953Y0069223D01*
X0106198Y0069046D01*
X0106448Y0068875D01*
X0106702Y0068710D01*
X0106960Y0068552D01*
X0107222Y0068399D01*
X0107487Y0068253D01*
X0107756Y0068113D01*
X0108028Y0067980D01*
X0108303Y0067854D01*
X0108581Y0067734D01*
X0108862Y0067621D01*
X0109145Y0067515D01*
X0109431Y0067415D01*
X0109719Y0067323D01*
X0110010Y0067237D01*
X0110302Y0067159D01*
X0110597Y0067088D01*
X0110893Y0067023D01*
X0111190Y0066966D01*
X0111489Y0066917D01*
X0111788Y0066874D01*
X0112089Y0066839D01*
X0112391Y0066811D01*
X0112693Y0066790D01*
X0112995Y0066777D01*
X0113298Y0066770D01*
X0113601Y0066772D01*
X0113903Y0066780D01*
X0114206Y0066796D01*
X0114508Y0066819D01*
X0114809Y0066849D01*
X0115109Y0066887D01*
X0115409Y0066932D01*
X0115707Y0066984D01*
X0116004Y0067044D01*
X0116299Y0067110D01*
X0116593Y0067184D01*
X0116885Y0067264D01*
X0117175Y0067352D01*
X0117462Y0067447D01*
X0117748Y0067548D01*
X0118030Y0067657D01*
X0118310Y0067772D01*
X0118587Y0067894D01*
X0118862Y0068023D01*
X0119132Y0068158D01*
X0119400Y0068300D01*
X0085900Y0049300D01*
X0093400Y0053300D02*
X0093400Y0044300D01*
X0091400Y0042300D01*
X0075400Y0042300D01*
X0073400Y0044300D01*
X0073400Y0044800D01*
X0073400Y0044300D02*
X0093400Y0044300D01*
X0091400Y0042300D02*
X0091400Y0034300D01*
X0093400Y0034300D01*
X0091400Y0009300D01*
X0091400Y0001300D01*
X0075400Y0001300D01*
X0075400Y0009300D01*
X0073400Y0034300D01*
X0075400Y0034300D01*
X0075400Y0042300D01*
X0075400Y0034300D02*
X0091400Y0034300D01*
X0091400Y0009300D02*
X0075400Y0009300D01*
X0072900Y0074300D02*
X0072900Y0077331D01*
X0072900Y0074300D02*
X0069869Y0074300D01*
X0065931Y0074300D02*
X0062900Y0074300D01*
X0062900Y0077331D01*
X0062900Y0081269D02*
X0062900Y0084300D01*
X0065931Y0084300D01*
X0069869Y0084300D02*
X0072900Y0084300D01*
X0072900Y0081269D01*
X0102400Y0073300D02*
X0102242Y0072457D01*
X0102062Y0071617D01*
X0101863Y0070783D01*
X0101643Y0069953D01*
X0101403Y0069129D01*
X0101142Y0068312D01*
X0100862Y0067501D01*
X0100562Y0066697D01*
X0100242Y0065900D01*
X0099903Y0065112D01*
X0099545Y0064332D01*
X0099167Y0063561D01*
X0098771Y0062800D01*
X0098356Y0062049D01*
X0097923Y0061308D01*
X0097473Y0060578D01*
X0097004Y0059859D01*
X0096518Y0059152D01*
X0096014Y0058457D01*
X0095494Y0057774D01*
X0094957Y0057105D01*
X0094404Y0056448D01*
X0093835Y0055806D01*
X0093251Y0055178D01*
X0092651Y0054564D01*
X0092036Y0053965D01*
X0091407Y0053381D01*
X0090764Y0052813D01*
X0090107Y0052261D01*
X0089437Y0051725D01*
X0088754Y0051206D01*
X0088058Y0050703D01*
X0087350Y0050218D01*
X0086631Y0049750D01*
X0085900Y0049300D01*
X0033400Y0085300D02*
X0033558Y0086143D01*
X0033738Y0086983D01*
X0033937Y0087817D01*
X0034157Y0088647D01*
X0034397Y0089471D01*
X0034658Y0090288D01*
X0034938Y0091099D01*
X0035238Y0091903D01*
X0035558Y0092700D01*
X0035897Y0093488D01*
X0036255Y0094268D01*
X0036633Y0095039D01*
X0037029Y0095800D01*
X0037444Y0096551D01*
X0037877Y0097292D01*
X0038327Y0098022D01*
X0038796Y0098741D01*
X0039282Y0099448D01*
X0039786Y0100143D01*
X0040306Y0100826D01*
X0040843Y0101495D01*
X0041396Y0102152D01*
X0041965Y0102794D01*
X0042549Y0103422D01*
X0043149Y0104036D01*
X0043764Y0104635D01*
X0044393Y0105219D01*
X0045036Y0105787D01*
X0045693Y0106339D01*
X0046363Y0106875D01*
X0047046Y0107394D01*
X0047742Y0107897D01*
X0048450Y0108382D01*
X0049169Y0108850D01*
X0049900Y0109300D01*
X0045400Y0106800D02*
X0045400Y0127300D01*
X0040400Y0127300D01*
X0040400Y0115300D01*
X0040482Y0115298D01*
X0040564Y0115292D01*
X0040645Y0115283D01*
X0040726Y0115269D01*
X0040807Y0115252D01*
X0040886Y0115231D01*
X0040964Y0115207D01*
X0041041Y0115178D01*
X0041117Y0115146D01*
X0041191Y0115111D01*
X0041263Y0115072D01*
X0041334Y0115030D01*
X0041402Y0114985D01*
X0041468Y0114936D01*
X0041532Y0114885D01*
X0041593Y0114830D01*
X0041652Y0114773D01*
X0041708Y0114713D01*
X0041761Y0114650D01*
X0041811Y0114585D01*
X0041858Y0114518D01*
X0041902Y0114449D01*
X0041942Y0114377D01*
X0041979Y0114304D01*
X0042013Y0114229D01*
X0042043Y0114153D01*
X0042069Y0114075D01*
X0042092Y0113996D01*
X0042111Y0113917D01*
X0042126Y0113836D01*
X0042138Y0113755D01*
X0042146Y0113673D01*
X0042150Y0113591D01*
X0042150Y0113509D01*
X0042146Y0113427D01*
X0042138Y0113345D01*
X0042126Y0113264D01*
X0042111Y0113183D01*
X0042092Y0113104D01*
X0042069Y0113025D01*
X0042043Y0112947D01*
X0042013Y0112871D01*
X0041979Y0112796D01*
X0041942Y0112723D01*
X0041902Y0112651D01*
X0041858Y0112582D01*
X0041811Y0112515D01*
X0041761Y0112450D01*
X0041708Y0112387D01*
X0041652Y0112327D01*
X0041593Y0112270D01*
X0041532Y0112215D01*
X0041468Y0112164D01*
X0041402Y0112115D01*
X0041334Y0112070D01*
X0041263Y0112028D01*
X0041191Y0111989D01*
X0041117Y0111954D01*
X0041041Y0111922D01*
X0040964Y0111893D01*
X0040886Y0111869D01*
X0040807Y0111848D01*
X0040726Y0111831D01*
X0040645Y0111817D01*
X0040564Y0111808D01*
X0040482Y0111802D01*
X0040400Y0111800D01*
X0040400Y0103800D01*
X0045601Y0052337D02*
X0046187Y0051864D01*
X0046782Y0051404D01*
X0047387Y0050956D01*
X0048002Y0050522D01*
X0048626Y0050101D01*
X0049258Y0049693D01*
X0049900Y0049299D01*
X0102400Y0073300D02*
X0102521Y0074043D01*
X0102625Y0074788D01*
X0102713Y0075536D01*
X0102786Y0076285D01*
X0102842Y0077036D01*
X0102882Y0077787D01*
X0102905Y0078539D01*
X0119400Y0068300D02*
X0119666Y0068449D01*
X0119928Y0068605D01*
X0120187Y0068767D01*
X0120441Y0068936D01*
X0120692Y0069110D01*
X0120938Y0069291D01*
X0121179Y0069477D01*
X0121416Y0069670D01*
X0121648Y0069868D01*
X0121875Y0070071D01*
X0122097Y0070280D01*
X0122314Y0070495D01*
X0122526Y0070714D01*
X0122733Y0070939D01*
X0122933Y0071169D01*
X0123129Y0071403D01*
X0123318Y0071643D01*
X0123501Y0071886D01*
X0123679Y0072135D01*
X0123850Y0072387D01*
X0124016Y0072643D01*
X0124175Y0072904D01*
X0124327Y0073168D01*
X0124473Y0073436D01*
X0124613Y0073707D01*
X0124745Y0073982D01*
X0124872Y0074260D01*
X0124991Y0074541D01*
X0125103Y0074824D01*
X0125209Y0075111D01*
X0125307Y0075399D01*
X0125399Y0075690D01*
X0125483Y0075984D01*
X0125560Y0076279D01*
X0125630Y0076576D01*
X0125693Y0076874D01*
X0125748Y0077174D01*
X0125796Y0077476D01*
X0125837Y0077778D01*
X0125871Y0078081D01*
X0125897Y0078385D01*
X0125915Y0078690D01*
X0125926Y0078995D01*
X0125930Y0079300D01*
X0125926Y0079605D01*
X0125915Y0079910D01*
X0125897Y0080215D01*
X0125871Y0080519D01*
X0125837Y0080822D01*
X0125796Y0081124D01*
X0125748Y0081426D01*
X0125693Y0081726D01*
X0125630Y0082024D01*
X0125560Y0082321D01*
X0125483Y0082616D01*
X0125399Y0082910D01*
X0125307Y0083201D01*
X0125209Y0083489D01*
X0125103Y0083776D01*
X0124991Y0084059D01*
X0124872Y0084340D01*
X0124745Y0084618D01*
X0124613Y0084893D01*
X0124473Y0085164D01*
X0124327Y0085432D01*
X0124175Y0085696D01*
X0124016Y0085957D01*
X0123850Y0086213D01*
X0123679Y0086465D01*
X0123501Y0086714D01*
X0123318Y0086957D01*
X0123129Y0087197D01*
X0122933Y0087431D01*
X0122733Y0087661D01*
X0122526Y0087886D01*
X0122314Y0088105D01*
X0122097Y0088320D01*
X0121875Y0088529D01*
X0121648Y0088732D01*
X0121416Y0088930D01*
X0121179Y0089123D01*
X0120938Y0089309D01*
X0120692Y0089490D01*
X0120441Y0089664D01*
X0120187Y0089833D01*
X0119928Y0089995D01*
X0119666Y0090151D01*
X0119400Y0090300D01*
X0095400Y0103800D02*
X0095400Y0127300D01*
X0090400Y0127300D01*
X0090400Y0106800D01*
X0033400Y0085300D02*
X0033279Y0084557D01*
X0033175Y0083812D01*
X0033087Y0083064D01*
X0033014Y0082315D01*
X0032958Y0081564D01*
X0032918Y0080813D01*
X0032895Y0080061D01*
X0035064Y0067176D02*
X0035333Y0066473D01*
X0035617Y0065776D01*
X0035916Y0065086D01*
X0036230Y0064401D01*
X0036558Y0063724D01*
X0036900Y0063054D01*
X0037257Y0062391D01*
X0085900Y0109301D02*
X0086542Y0108907D01*
X0087174Y0108499D01*
X0087798Y0108078D01*
X0088413Y0107644D01*
X0089018Y0107196D01*
X0089613Y0106736D01*
X0090199Y0106263D01*
X0039353Y0059061D02*
X0039795Y0058452D01*
X0040250Y0057852D01*
X0040718Y0057263D01*
X0041199Y0056684D01*
X0041692Y0056115D01*
X0042197Y0055557D01*
X0042714Y0055010D01*
X0100736Y0091424D02*
X0100467Y0092127D01*
X0100183Y0092824D01*
X0099884Y0093514D01*
X0099570Y0094199D01*
X0099242Y0094876D01*
X0098900Y0095546D01*
X0098543Y0096209D01*
X0033034Y0076128D02*
X0033111Y0075379D01*
X0033204Y0074633D01*
X0033313Y0073888D01*
X0033438Y0073146D01*
X0033579Y0072406D01*
X0033735Y0071670D01*
X0033908Y0070938D01*
X0102766Y0082472D02*
X0102689Y0083221D01*
X0102596Y0083967D01*
X0102487Y0084712D01*
X0102362Y0085454D01*
X0102221Y0086194D01*
X0102065Y0086930D01*
X0101892Y0087662D01*
X0090841Y0089234D02*
X0090622Y0089726D01*
X0090392Y0090214D01*
X0090152Y0090696D01*
X0089901Y0091173D01*
X0089640Y0091644D01*
X0089369Y0092110D01*
X0089088Y0092569D01*
X0088797Y0093023D01*
X0092116Y0085513D02*
X0092244Y0084990D01*
X0092361Y0084464D01*
X0092466Y0083936D01*
X0092561Y0083405D01*
X0092643Y0082873D01*
X0092715Y0082339D01*
X0092774Y0081803D01*
X0092823Y0081266D01*
X0092823Y0077334D02*
X0092774Y0076797D01*
X0092715Y0076261D01*
X0092643Y0075727D01*
X0092561Y0075195D01*
X0092466Y0074664D01*
X0092361Y0074136D01*
X0092244Y0073610D01*
X0092116Y0073087D01*
X0096447Y0099539D02*
X0096005Y0100148D01*
X0095550Y0100748D01*
X0095082Y0101337D01*
X0094601Y0101916D01*
X0094108Y0102485D01*
X0093603Y0103043D01*
X0093086Y0103590D01*
X0079937Y0057388D02*
X0079462Y0057134D01*
X0078981Y0056890D01*
X0078496Y0056656D01*
X0078005Y0056433D01*
X0077510Y0056221D01*
X0077011Y0056019D01*
X0076507Y0055828D01*
X0075999Y0055648D01*
X0088797Y0065577D02*
X0089088Y0066031D01*
X0089369Y0066490D01*
X0089640Y0066956D01*
X0089901Y0067427D01*
X0090152Y0067904D01*
X0090392Y0068386D01*
X0090622Y0068874D01*
X0090841Y0069366D01*
X0079937Y0101212D02*
X0079462Y0101466D01*
X0078981Y0101710D01*
X0078496Y0101944D01*
X0078005Y0102167D01*
X0077510Y0102379D01*
X0077011Y0102581D01*
X0076507Y0102772D01*
X0075999Y0102952D01*
X0055863Y0057388D02*
X0056338Y0057134D01*
X0056819Y0056890D01*
X0057304Y0056656D01*
X0057795Y0056433D01*
X0058290Y0056221D01*
X0058789Y0056019D01*
X0059293Y0055828D01*
X0059801Y0055648D01*
X0047003Y0065577D02*
X0046712Y0066031D01*
X0046431Y0066490D01*
X0046160Y0066956D01*
X0045899Y0067427D01*
X0045648Y0067904D01*
X0045408Y0068386D01*
X0045178Y0068874D01*
X0044959Y0069366D01*
X0043684Y0073087D02*
X0043556Y0073610D01*
X0043439Y0074136D01*
X0043334Y0074664D01*
X0043239Y0075195D01*
X0043157Y0075727D01*
X0043085Y0076261D01*
X0043026Y0076797D01*
X0042977Y0077334D01*
X0042977Y0081266D02*
X0043026Y0081803D01*
X0043085Y0082339D01*
X0043157Y0082873D01*
X0043239Y0083405D01*
X0043334Y0083936D01*
X0043439Y0084464D01*
X0043556Y0084990D01*
X0043684Y0085513D01*
X0044959Y0089234D02*
X0045178Y0089726D01*
X0045408Y0090214D01*
X0045648Y0090696D01*
X0045899Y0091173D01*
X0046160Y0091644D01*
X0046431Y0092110D01*
X0046712Y0092569D01*
X0047003Y0093023D01*
X0049414Y0062469D02*
X0049781Y0062075D01*
X0050156Y0061688D01*
X0050540Y0061310D01*
X0050932Y0060940D01*
X0051331Y0060579D01*
X0051739Y0060226D01*
X0052154Y0059882D01*
X0052576Y0059547D01*
X0055863Y0101212D02*
X0056338Y0101466D01*
X0056819Y0101710D01*
X0057304Y0101944D01*
X0057795Y0102167D01*
X0058290Y0102379D01*
X0058789Y0102581D01*
X0059293Y0102772D01*
X0059801Y0102952D01*
X0067900Y0104300D02*
X0068439Y0104294D01*
X0068977Y0104277D01*
X0069515Y0104248D01*
X0070053Y0104207D01*
X0070589Y0104155D01*
X0071124Y0104091D01*
X0071658Y0104016D01*
X0072189Y0103929D01*
X0067900Y0104300D02*
X0067361Y0104294D01*
X0066823Y0104277D01*
X0066285Y0104248D01*
X0065747Y0104207D01*
X0065211Y0104155D01*
X0064676Y0104091D01*
X0064142Y0104016D01*
X0063611Y0103929D01*
X0086386Y0062469D02*
X0086019Y0062075D01*
X0085644Y0061688D01*
X0085260Y0061310D01*
X0084868Y0060940D01*
X0084469Y0060579D01*
X0084061Y0060226D01*
X0083646Y0059882D01*
X0083224Y0059547D01*
X0086386Y0096131D02*
X0086019Y0096525D01*
X0085644Y0096912D01*
X0085260Y0097290D01*
X0084868Y0097660D01*
X0084469Y0098021D01*
X0084061Y0098374D01*
X0083646Y0098718D01*
X0083224Y0099053D01*
X0067900Y0054300D02*
X0067361Y0054306D01*
X0066823Y0054323D01*
X0066285Y0054352D01*
X0065747Y0054393D01*
X0065211Y0054445D01*
X0064676Y0054509D01*
X0064142Y0054584D01*
X0063611Y0054671D01*
X0049414Y0096131D02*
X0049781Y0096525D01*
X0050156Y0096912D01*
X0050540Y0097290D01*
X0050932Y0097660D01*
X0051331Y0098021D01*
X0051739Y0098374D01*
X0052154Y0098718D01*
X0052576Y0099053D01*
X0067900Y0054300D02*
X0068439Y0054306D01*
X0068977Y0054323D01*
X0069515Y0054352D01*
X0070053Y0054393D01*
X0070589Y0054445D01*
X0071124Y0054509D01*
X0071658Y0054584D01*
X0072189Y0054671D01*
X0085900Y0109300D02*
X0085174Y0109724D01*
X0084439Y0110130D01*
X0083694Y0110518D01*
X0082939Y0110889D01*
X0082176Y0111241D01*
X0081405Y0111574D01*
X0080626Y0111889D01*
X0079840Y0112186D01*
X0079047Y0112463D01*
X0078247Y0112721D01*
X0077441Y0112960D01*
X0076630Y0113179D01*
X0075814Y0113379D01*
X0074993Y0113559D01*
X0074168Y0113720D01*
X0073340Y0113860D01*
X0072508Y0113981D01*
X0071674Y0114082D01*
X0070838Y0114162D01*
X0070000Y0114223D01*
X0069160Y0114263D01*
X0068320Y0114283D01*
X0067480Y0114283D01*
X0066640Y0114263D01*
X0065800Y0114223D01*
X0064962Y0114162D01*
X0064126Y0114082D01*
X0063292Y0113981D01*
X0062460Y0113860D01*
X0061632Y0113720D01*
X0060807Y0113559D01*
X0059986Y0113379D01*
X0059170Y0113179D01*
X0058359Y0112960D01*
X0057553Y0112721D01*
X0056753Y0112463D01*
X0055960Y0112186D01*
X0055174Y0111889D01*
X0054395Y0111574D01*
X0053624Y0111241D01*
X0052861Y0110889D01*
X0052106Y0110518D01*
X0051361Y0110130D01*
X0050626Y0109724D01*
X0049900Y0109300D01*
X0049900Y0049300D02*
X0050626Y0048876D01*
X0051361Y0048470D01*
X0052106Y0048082D01*
X0052861Y0047711D01*
X0053624Y0047359D01*
X0054395Y0047026D01*
X0055174Y0046711D01*
X0055960Y0046414D01*
X0056753Y0046137D01*
X0057553Y0045879D01*
X0058359Y0045640D01*
X0059170Y0045421D01*
X0059986Y0045221D01*
X0060807Y0045041D01*
X0061632Y0044880D01*
X0062460Y0044740D01*
X0063292Y0044619D01*
X0064126Y0044518D01*
X0064962Y0044438D01*
X0065800Y0044377D01*
X0066640Y0044337D01*
X0067480Y0044317D01*
X0068320Y0044317D01*
X0069160Y0044337D01*
X0070000Y0044377D01*
X0070838Y0044438D01*
X0071674Y0044518D01*
X0072508Y0044619D01*
X0073340Y0044740D01*
X0074168Y0044880D01*
X0074993Y0045041D01*
X0075814Y0045221D01*
X0076630Y0045421D01*
X0077441Y0045640D01*
X0078247Y0045879D01*
X0079047Y0046137D01*
X0079840Y0046414D01*
X0080626Y0046711D01*
X0081405Y0047026D01*
X0082176Y0047359D01*
X0082939Y0047711D01*
X0083694Y0048082D01*
X0084439Y0048470D01*
X0085174Y0048876D01*
X0085900Y0049300D01*
M02*
