G75*
%MOIN*%
%OFA0B0*%
%FSLAX25Y25*%
%IPPOS*%
%LPD*%
%AMOC8*
5,1,8,0,0,1.08239X$1,22.5*
%
%ADD10R,0.03000X0.05000*%
%ADD11R,0.03937X0.05512*%
%ADD12R,0.03150X0.04724*%
%ADD13R,0.05118X0.05906*%
%ADD14R,0.04724X0.04724*%
D10*
X0034500Y0060300D03*
X0039500Y0060300D03*
X0044500Y0060300D03*
X0049500Y0060300D03*
X0054500Y0060300D03*
X0059500Y0060300D03*
X0064500Y0060300D03*
X0069500Y0060300D03*
X0074500Y0060300D03*
X0079500Y0060300D03*
X0084500Y0060300D03*
X0089500Y0060300D03*
X0094500Y0060300D03*
X0099500Y0060300D03*
X0099500Y0100800D03*
X0094500Y0100800D03*
X0089500Y0100800D03*
X0084500Y0100800D03*
X0079500Y0100800D03*
X0074500Y0100800D03*
X0069500Y0100800D03*
X0064500Y0100800D03*
X0059500Y0100800D03*
X0054500Y0100800D03*
X0049500Y0100800D03*
X0044500Y0100800D03*
X0039500Y0100800D03*
X0034500Y0100800D03*
D11*
X0099760Y0120969D03*
X0107240Y0120969D03*
X0103500Y0129631D03*
D12*
X0099957Y0113300D03*
X0107043Y0113300D03*
X0059043Y0139800D03*
X0051957Y0139800D03*
D13*
X0073654Y0143300D03*
X0080346Y0143300D03*
X0081654Y0109800D03*
X0088346Y0109800D03*
X0070846Y0109800D03*
X0064154Y0109800D03*
D14*
X0090866Y0160800D03*
X0099134Y0160800D03*
M02*
